Exodus-Regular.ufo
<glyph name="A" format="2">
  <advance width="1144"/>
  <unicode hex="0041"/>
  <outline>
    <contour>
      <point x="1134" y="42" type="line"/>
      <point x="1132" y="68" type="line"/>
      <point x="1094" y="74"/>
      <point x="1080.61" y="135.109"/>
      <point x="1030" y="415" type="curve" smooth="yes"/>
      <point x="982.607" y="677.111"/>
      <point x="927" y="770"/>
      <point x="842" y="770" type="curve" smooth="yes"/>
      <point x="809" y="770"/>
      <point x="789.025" y="764.909"/>
      <point x="756" y="756" type="curve" smooth="yes"/>
      <point x="541" y="698" type="line"/>
      <point x="612" y="827"/>
      <point x="698" y="949"/>
      <point x="788" y="1066" type="curve"/>
      <point x="501" y="1020" type="line"/>
      <point x="488" y="1343" type="line" smooth="yes"/>
      <point x="486.351" y="1383.98"/>
      <point x="461" y="1407"/>
      <point x="420" y="1407" type="curve" smooth="yes"/>
      <point x="407" y="1407"/>
      <point x="394.021" y="1403.91"/>
      <point x="381" y="1401" type="curve" smooth="yes"/>
      <point x="139" y="1347" type="line"/>
      <point x="139" y="1321" type="line"/>
      <point x="180" y="1310"/>
      <point x="195.054" y="1274"/>
      <point x="198" y="1235" type="curve" smooth="yes"/>
      <point x="223" y="904" type="line"/>
      <point x="432" y="939" type="line"/>
      <point x="280" y="757"/>
      <point x="131.459" y="517.831"/>
      <point x="48" y="292" type="curve" smooth="yes"/>
      <point x="29.4583" y="241.828"/>
      <point x="10" y="176"/>
      <point x="10" y="122" type="curve" smooth="yes"/>
      <point x="10" y="42"/>
      <point x="45" y="1"/>
      <point x="126" y="1" type="curve" smooth="yes"/>
      <point x="141" y="1"/>
      <point x="153.999" y="2.00929"/>
      <point x="168" y="4" type="curve" smooth="yes"/>
      <point x="379" y="34" type="line"/>
      <point x="386" y="61" type="line"/>
      <point x="337" y="68"/>
      <point x="331" y="103"/>
      <point x="331" y="145" type="curve" smooth="yes"/>
      <point x="331" y="226"/>
      <point x="458" y="540"/>
      <point x="501" y="617" type="curve"/>
      <point x="667" y="617"/>
      <point x="715.278" y="592.045"/>
      <point x="742" y="428" type="curve" smooth="yes"/>
      <point x="751.278" y="371.045"/>
      <point x="757" y="314"/>
      <point x="765" y="257" type="curve" smooth="yes"/>
      <point x="789" y="86"/>
      <point x="819" y="1"/>
      <point x="906" y="1" type="curve" smooth="yes"/>
      <point x="917" y="1"/>
      <point x="926.987" y="2.06847"/>
      <point x="937" y="4" type="curve" smooth="yes"/>
    </contour>
  </outline>
</glyph>
<glyph name="B" format="2">
  <advance width="1141"/>
  <unicode hex="0042"/>
  <outline>
    <contour>
      <point x="695.85" y="225.42" type="curve" smooth="yes"/>
      <point x="695.85" y="167.076"/>
      <point x="665.352" y="90.168"/>
      <point x="593.748" y="90.168" type="curve" smooth="yes"/>
      <point x="539.382" y="90.168"/>
      <point x="486.342" y="140.556"/>
      <point x="447.888" y="352.716" type="curve"/>
      <point x="471.756" y="358.02"/>
      <point x="506.232" y="363.324"/>
      <point x="530.1" y="363.324" type="curve" smooth="yes"/>
      <point x="644.136" y="363.324"/>
      <point x="695.85" y="330.174"/>
    </contour>
    <contour>
      <point x="1060.5" y="1093.95" type="curve" smooth="yes"/>
      <point x="1060.5" y="1323.35"/>
      <point x="922.596" y="1373.74"/>
      <point x="721.044" y="1373.74" type="curve" smooth="yes"/>
      <point x="286.116" y="1373.74"/>
      <point x="66" y="1217.27"/>
      <point x="66" y="762.45" type="curve" smooth="yes"/>
      <point x="66" y="433.602"/>
      <point x="152.19" y="0"/>
      <point x="563.25" y="0" type="curve" smooth="yes"/>
      <point x="739.608" y="0"/>
      <point x="1022.05" y="100.776"/>
      <point x="1022.05" y="312.936" type="curve" smooth="yes"/>
      <point x="1022.05" y="430.95"/>
      <point x="934.53" y="489.294"/>
      <point x="824.472" y="489.294" type="curve" smooth="yes"/>
      <point x="740.934" y="489.294"/>
      <point x="568.554" y="464.1"/>
      <point x="446.562" y="442.884" type="curve"/>
      <point x="438.606" y="523.77"/>
      <point x="435.954" y="605.982"/>
      <point x="435.954" y="686.868" type="curve"/>
      <point x="486.342" y="677.586"/>
      <point x="539.382" y="670.956"/>
      <point x="591.096" y="670.956" type="curve" smooth="yes"/>
      <point x="835.08" y="670.956"/>
      <point x="1060.5" y="835.38"/>
    </contour>
    <contour>
      <point x="718.392" y="1156.27" type="curve" smooth="yes"/>
      <point x="718.392" y="1005.11"/>
      <point x="603.03" y="787.644"/>
      <point x="435.954" y="771.732" type="curve"/>
      <point x="435.954" y="1071.41"/>
      <point x="482.364" y="1267.66"/>
      <point x="614.964" y="1267.66" type="curve" smooth="yes"/>
      <point x="695.85" y="1267.66"/>
      <point x="718.392" y="1233.18"/>
    </contour>
  </outline>
</glyph>
<glyph name="C" format="2">
  <advance width="1363"/>
  <unicode hex="0043"/>
  <outline>
    <contour>
      <point x="1282.68" y="1096.23" type="curve"/>
      <point x="1213.89" y="1200.56"/>
      <point x="1196.69" y="1283.11"/>
      <point x="1188.67" y="1406.93" type="curve"/>
      <point x="946.754" y="1411.51"/>
      <point x="597.258" y="1389.44"/>
      <point x="308.153" y="1202.85" type="curve" smooth="yes"/>
      <point x="147.83" y="1099.38"/>
      <point x="108.277" y="910.529"/>
      <point x="91.465" y="727.053" type="curve" smooth="yes"/>
      <point x="81.9079" y="622.756"/>
      <point x="80" y="517.243"/>
      <point x="80" y="412.912" type="curve" smooth="yes"/>
      <point x="80" y="232.911"/>
      <point x="88.0255" y="0.171945"/>
      <point x="319.619" y="0.171945" type="curve" smooth="yes"/>
      <point x="448.027" y="0.171945"/>
      <point x="677.327" y="62.0829"/>
      <point x="805.735" y="101.064" type="curve"/>
      <point x="840.13" y="18.5159"/>
      <point x="929.557" y="-9"/>
      <point x="1012.1" y="-9" type="curve" smooth="yes"/>
      <point x="1072.87" y="-9"/>
      <point x="1172.61" y="10.4905"/>
      <point x="1211.6" y="63.2295" type="curve"/>
      <point x="1161.15" y="99.9175"/>
      <point x="1141.66" y="189.344"/>
      <point x="1141.66" y="246.67" type="curve" smooth="yes"/>
      <point x="1141.66" y="254.695"/>
      <point x="1142.81" y="337.243"/>
      <point x="1160" y="347.561" type="curve"/>
      <point x="1140.51" y="355.587"/>
      <point x="1109.56" y="359.026"/>
      <point x="1090.07" y="359.026" type="curve" smooth="yes"/>
      <point x="974.27" y="359.026"/>
      <point x="810.321" y="341.829"/>
      <point x="791.977" y="199.663" type="curve"/>
      <point x="740.384" y="159.535"/>
      <point x="650.957" y="141.191"/>
      <point x="587.9" y="141.191" type="curve" smooth="yes"/>
      <point x="553.505" y="141.191"/>
      <point x="514.438" y="141.028"/>
      <point x="483.568" y="157.243" type="curve" smooth="yes"/>
      <point x="400.934" y="200.646"/>
      <point x="406.753" y="383.103"/>
      <point x="406.753" y="459.919" type="curve" smooth="yes"/>
      <point x="406.753" y="591.766"/>
      <point x="411.15" y="723.643"/>
      <point x="431.976" y="854.315" type="curve" smooth="yes"/>
      <point x="469.621" y="1090.52"/>
      <point x="554.651" y="1286.55"/>
      <point x="824.079" y="1286.55" type="curve"/>
      <point x="822.932" y="1277.37"/>
      <point x="822.932" y="1268.2"/>
      <point x="822.932" y="1259.03" type="curve" smooth="yes"/>
      <point x="822.932" y="1082.47"/>
      <point x="954.78" y="1054.95"/>
      <point x="1099.24" y="1054.95" type="curve" smooth="yes"/>
      <point x="1154.27" y="1054.95"/>
      <point x="1233.38" y="1067.56"/>
    </contour>
  </outline>
</glyph>
<glyph name="D" format="2">
  <advance width="1777"/>
  <unicode hex="0044"/>
  <outline>
    <contour>
      <point x="66.8624" y="1193.9" type="curve"/>
      <point x="128.398" y="1174.67"/>
      <point x="141.218" y="1049.03"/>
      <point x="141.218" y="1000.31" type="curve" smooth="yes"/>
      <point x="141.218" y="965.699"/>
      <point x="137.372" y="869.549"/>
      <point x="116.86" y="837.499" type="curve"/>
      <point x="325.826" y="847.755"/>
      <point x="536.074" y="855.447"/>
      <point x="745.04" y="863.139" type="curve"/>
      <point x="738.63" y="820.833"/>
      <point x="737.348" y="777.245"/>
      <point x="737.348" y="734.939" type="curve" smooth="yes"/>
      <point x="737.348" y="483.667"/>
      <point x="884.778" y="456.745"/>
      <point x="1104" y="456.745" type="curve" smooth="yes"/>
      <point x="1171.95" y="456.745"/>
      <point x="1239.89" y="461.873"/>
      <point x="1306.56" y="474.693" type="curve"/>
      <point x="1234.76" y="184.961"/>
      <point x="1023.23" y="70.863"/>
      <point x="739.912" y="70.863" type="curve" smooth="yes"/>
      <point x="692.478" y="70.863"/>
      <point x="625.814" y="70.863"/>
      <point x="582.226" y="88.811" type="curve"/>
      <point x="592.482" y="283.675"/>
      <point x="409.156" y="401.619"/>
      <point x="254.034" y="401.619" type="curve" smooth="yes"/>
      <point x="216.856" y="401.619"/>
      <point x="168.14" y="388.799"/>
      <point x="138.654" y="364.441" type="curve"/>
      <point x="205.318" y="322.135"/>
      <point x="196.344" y="70.863"/>
      <point x="196.344" y="0.353014" type="curve"/>
      <point x="374.542" y="0.353014"/>
      <point x="552.74" y="-16.313"/>
      <point x="730.938" y="-16.313" type="curve" smooth="yes"/>
      <point x="1127.08" y="-16.313"/>
      <point x="1344.82" y="46.6908"/>
      <point x="1477.06" y="186.243" type="curve" smooth="yes"/>
      <point x="1599.94" y="315.911"/>
      <point x="1697.57" y="477.257"/>
      <point x="1697.57" y="659.301" type="curve" smooth="yes"/>
      <point x="1697.57" y="906.727"/>
      <point x="1560.39" y="981.083"/>
      <point x="1329.63" y="981.083" type="curve" smooth="yes"/>
      <point x="1261.69" y="981.083"/>
      <point x="1193.74" y="977.237"/>
      <point x="1125.79" y="975.955" type="curve"/>
      <point x="1175.79" y="1346.45" type="line" smooth="yes"/>
      <point x="1181.15" y="1386.16"/>
      <point x="1188.61" y="1427.22"/>
      <point x="1188.61" y="1466.96" type="curve" smooth="yes"/>
      <point x="1188.61" y="1534.91"/>
      <point x="1150.15" y="1555.42"/>
      <point x="1087.33" y="1555.42" type="curve" smooth="yes"/>
      <point x="1016.82" y="1555.42"/>
      <point x="873.24" y="1523.37"/>
      <point x="780.936" y="1506.7" type="curve"/>
      <point x="780.936" y="1472.09" type="line"/>
      <point x="809.14" y="1468.24"/>
      <point x="812.986" y="1418.25"/>
      <point x="812.986" y="1396.45" type="curve" smooth="yes"/>
      <point x="812.986" y="1355.43"/>
      <point x="803.119" y="1286.15"/>
      <point x="797.602" y="1246.46" type="curve" smooth="yes"/>
      <point x="757.86" y="960.571" type="line"/>
      <point x="673.248" y="955.443"/>
      <point x="589.918" y="951.597"/>
      <point x="505.306" y="947.751" type="curve"/>
      <point x="505.306" y="1125.95"/>
      <point x="425.822" y="1241.33"/>
      <point x="237.368" y="1241.33" type="curve" smooth="yes"/>
      <point x="206.6" y="1241.33"/>
      <point x="80.964" y="1234.92"/>
    </contour>
    <contour>
      <point x="1096.31" y="716.991" type="curve" smooth="yes"/>
      <point x="1096.31" y="770.835"/>
      <point x="1105.28" y="824.679"/>
      <point x="1111.69" y="877.241" type="curve"/>
      <point x="1164.25" y="877.241" type="line" smooth="yes"/>
      <point x="1265.53" y="877.241"/>
      <point x="1332.2" y="822.115"/>
      <point x="1332.2" y="716.991" type="curve" smooth="yes"/>
      <point x="1332.2" y="669.557"/>
      <point x="1329.63" y="622.123"/>
      <point x="1324.5" y="574.689" type="curve"/>
      <point x="1297.58" y="565.715"/>
      <point x="1269.38" y="559.305"/>
      <point x="1241.17" y="559.305" type="curve" smooth="yes"/>
      <point x="1138.61" y="559.305"/>
      <point x="1096.31" y="619.559"/>
    </contour>
  </outline>
</glyph>
<glyph name="E" format="2">
  <advance width="1553"/>
  <unicode hex="0045"/>
  <outline>
    <contour>
      <point x="850" y="1370" type="line" smooth="yes"/>
      <point x="731.035" y="1360.55"/>
      <point x="627" y="1313"/>
      <point x="627" y="1180" type="curve" smooth="yes"/>
      <point x="627" y="1135"/>
      <point x="642" y="1028"/>
      <point x="668" y="901" type="curve"/>
      <point x="449" y="933" type="line" smooth="yes"/>
      <point x="401.002" y="940.013"/>
      <point x="321" y="951"/>
      <point x="297" y="951" type="curve" smooth="yes"/>
      <point x="257" y="951"/>
      <point x="246" y="923"/>
      <point x="246" y="887" type="curve" smooth="yes"/>
      <point x="246" y="850"/>
      <point x="263" y="737"/>
      <point x="273" y="674" type="curve"/>
      <point x="254" y="680"/>
      <point x="235" y="682"/>
      <point x="215" y="682" type="curve" smooth="yes"/>
      <point x="108" y="682"/>
      <point x="66" y="545"/>
      <point x="66" y="459" type="curve" smooth="yes"/>
      <point x="66" y="399"/>
      <point x="71" y="340"/>
      <point x="91" y="283" type="curve"/>
      <point x="130" y="313"/>
      <point x="186" y="342"/>
      <point x="236" y="342" type="curve" smooth="yes"/>
      <point x="288" y="342"/>
      <point x="334" y="319"/>
      <point x="375" y="289" type="curve"/>
      <point x="389" y="315"/>
      <point x="394" y="362"/>
      <point x="394" y="391" type="curve" smooth="yes"/>
      <point x="394" y="444"/>
      <point x="389" y="538"/>
      <point x="362" y="586" type="curve"/>
      <point x="358" y="603"/>
      <point x="353" y="629"/>
      <point x="353" y="645" type="curve" smooth="yes"/>
      <point x="353" y="662"/>
      <point x="361" y="662"/>
      <point x="375" y="662" type="curve" smooth="yes"/>
      <point x="408" y="662"/>
      <point x="603" y="633"/>
      <point x="707" y="617" type="curve"/>
      <point x="707" y="249"/>
      <point x="889" y="0"/>
      <point x="1272" y="0" type="curve" smooth="yes"/>
      <point x="1349" y="0"/>
      <point x="1390" y="29"/>
      <point x="1390" y="108" type="curve" smooth="yes"/>
      <point x="1390" y="123"/>
      <point x="1389.01" y="139.002"/>
      <point x="1387" y="154" type="curve" smooth="yes"/>
      <point x="1360" y="355" type="line"/>
      <point x="1328" y="355" type="line"/>
      <point x="1321" y="325"/>
      <point x="1282" y="314"/>
      <point x="1213" y="314" type="curve" smooth="yes"/>
      <point x="1021" y="314"/>
      <point x="797" y="376"/>
      <point x="787" y="604" type="curve"/>
      <point x="1186" y="543" type="line" smooth="yes"/>
      <point x="1221.93" y="537.507"/>
      <point x="1284" y="531"/>
      <point x="1321" y="531" type="curve" smooth="yes"/>
      <point x="1383" y="531"/>
      <point x="1391" y="589"/>
      <point x="1391" y="639" type="curve" smooth="yes"/>
      <point x="1391" y="679"/>
      <point x="1381" y="795"/>
      <point x="1368" y="901" type="curve"/>
      <point x="1336" y="901" type="line"/>
      <point x="1332" y="853"/>
      <point x="1292" y="826"/>
      <point x="1246" y="826" type="curve" smooth="yes"/>
      <point x="1219" y="826"/>
      <point x="1191.04" y="828.256"/>
      <point x="1164" y="832" type="curve" smooth="yes"/>
      <point x="738" y="891" type="line"/>
      <point x="738" y="1002"/>
      <point x="782.977" y="1083.4"/>
      <point x="902" y="1090" type="curve" smooth="yes"/>
      <point x="1299" y="1112" type="line" smooth="yes"/>
      <point x="1361.97" y="1115.49"/>
      <point x="1393" y="1146"/>
      <point x="1393" y="1209" type="curve" smooth="yes"/>
      <point x="1393" y="1232"/>
      <point x="1389.34" y="1254.06"/>
      <point x="1385" y="1276" type="curve" smooth="yes"/>
      <point x="1332" y="1544" type="line"/>
      <point x="1441" y="1544"/>
      <point x="1487" y="1612"/>
      <point x="1487" y="1714" type="curve" smooth="yes"/>
      <point x="1487" y="1789"/>
      <point x="1461" y="1865"/>
      <point x="1424" y="1929" type="curve"/>
      <point x="1381" y="1884"/>
      <point x="1325" y="1852"/>
      <point x="1262" y="1852" type="curve" smooth="yes"/>
      <point x="1216" y="1852"/>
      <point x="1169" y="1862"/>
      <point x="1127" y="1882" type="curve"/>
      <point x="1122" y="1855"/>
      <point x="1121" y="1827"/>
      <point x="1121" y="1800" type="curve" smooth="yes"/>
      <point x="1121" y="1700"/>
      <point x="1162" y="1588"/>
      <point x="1260" y="1546" type="curve"/>
      <point x="1267" y="1515"/>
      <point x="1274" y="1472"/>
      <point x="1274" y="1450" type="curve" smooth="yes"/>
      <point x="1274" y="1410"/>
      <point x="1219.97" y="1399.38"/>
      <point x="1190" y="1397" type="curve" smooth="yes"/>
    </contour>
  </outline>
</glyph>
<glyph name="F" format="2">
  <advance width="1187"/>
  <unicode hex="0046"/>
  <outline>
    <contour>
      <point x="1125.88" y="845.64" type="curve"/>
      <point x="1098.34" y="885.42"/>
      <point x="1023.88" y="899.7"/>
      <point x="980.016" y="899.7" type="curve" smooth="yes"/>
      <point x="869.856" y="899.7"/>
      <point x="763.776" y="833.4"/>
      <point x="749.496" y="718.14" type="curve"/>
      <point x="559.776" y="734.46" type="line"/>
      <point x="362.916" y="1014.96"/>
      <point x="342.516" y="1098.6"/>
      <point x="342.516" y="1148.58" type="curve" smooth="yes"/>
      <point x="342.516" y="1189.38"/>
      <point x="366.996" y="1284.24"/>
      <point x="420.036" y="1284.24" type="curve" smooth="yes"/>
      <point x="491.436" y="1284.24"/>
      <point x="580.176" y="1266.9"/>
      <point x="651.576" y="1256.7" type="curve"/>
      <point x="655.656" y="1217.94"/>
      <point x="661.776" y="1186.32"/>
      <point x="692.376" y="1160.82" type="curve" smooth="yes"/>
      <point x="735.216" y="1125.12"/>
      <point x="839.256" y="1103.7"/>
      <point x="956.556" y="1110.84" type="curve"/>
      <point x="954.516" y="1139.4"/>
      <point x="947.376" y="1165.92"/>
      <point x="947.376" y="1194.48" type="curve" smooth="yes"/>
      <point x="947.376" y="1240.38"/>
      <point x="959.616" y="1313.82"/>
      <point x="990.216" y="1350.54" type="curve"/>
      <point x="960.636" y="1380.12"/>
      <point x="864.756" y="1386.24"/>
      <point x="827.016" y="1386.24" type="curve" smooth="yes"/>
      <point x="789.276" y="1386.24"/>
      <point x="696.456" y="1376.04"/>
      <point x="683.196" y="1328.1" type="curve"/>
      <point x="597.516" y="1339.32"/>
      <point x="511.836" y="1349.52"/>
      <point x="426.156" y="1359.72" type="curve"/>
      <point x="375.156" y="1364.82"/>
      <point x="314.976" y="1374"/>
      <point x="269.076" y="1374" type="curve" smooth="yes"/>
      <point x="130.356" y="1374"/>
      <point x="51.8157" y="1315.86"/>
      <point x="51.8157" y="1171.02" type="curve" smooth="yes"/>
      <point x="51.8157" y="1072.08"/>
      <point x="129.176" y="939.35"/>
      <point x="231.336" y="814.02" type="curve" smooth="yes"/>
      <point x="327.056" y="696.59"/>
      <point x="494.886" y="308.42"/>
      <point x="471.961" y="143.82" type="curve" smooth="yes"/>
      <point x="467.317" y="110.482"/>
      <point x="457.681" y="56.1"/>
      <point x="414.841" y="54.06" type="curve"/>
      <point x="414.841" y="25.5" type="line"/>
      <point x="454.621" y="13.26"/>
      <point x="561.721" y="0"/>
      <point x="659.641" y="0" type="curve" smooth="yes"/>
      <point x="727.981" y="0"/>
      <point x="752.657" y="32.7213"/>
      <point x="749.401" y="97.92" type="curve" smooth="yes"/>
      <point x="738" y="326.163"/>
      <point x="648.516" y="586.56"/>
      <point x="611.796" y="648.78" type="curve"/>
      <point x="1010.62" y="611.04" type="line"/>
      <point x="1013.68" y="697.74"/>
      <point x="1027.96" y="817.08"/>
    </contour>
  </outline>
</glyph>
<glyph name="G" format="2">
  <advance width="2404"/>
  <unicode hex="0047"/>
  <outline>
    <contour>
      <point x="1408.06" y="284.244" type="curve"/>
      <point x="1413.86" y="331.763"/>
      <point x="1421.97" y="380.441"/>
      <point x="1421.97" y="429.119" type="curve" smooth="yes"/>
      <point x="1421.97" y="517.203"/>
      <point x="1383.51" y="565.313"/>
      <point x="1291.01" y="571.676" type="curve" smooth="yes"/>
      <point x="1241.34" y="575.092"/>
      <point x="1224.77" y="580.409"/>
      <point x="1155.68" y="581.631" type="curve" smooth="yes"/>
      <point x="1069.9" y="583.148"/>
      <point x="957.165" y="574"/>
      <point x="880.671" y="557.768" type="curve"/>
      <point x="876.035" y="514.885"/>
      <point x="873.717" y="472.002"/>
      <point x="873.717" y="429.119" type="curve" smooth="yes"/>
      <point x="873.717" y="334.081"/>
      <point x="933.985" y="284.244"/>
      <point x="1025.55" y="284.244" type="curve" smooth="yes"/>
      <point x="1084.91" y="284.244"/>
      <point x="1146.07" y="284.244"/>
      <point x="1205.44" y="284.244" type="curve" smooth="yes"/>
      <point x="1280.55" y="284.244"/>
      <point x="1357.95" y="284.244"/>
    </contour>
    <contour>
      <point x="543.402" y="741.274" type="curve" smooth="yes"/>
      <point x="554.7" y="905.464"/>
      <point x="631.663" y="1051.72"/>
      <point x="742.75" y="1168.94" type="curve" smooth="yes"/>
      <point x="862.304" y="1295.11"/>
      <point x="1059.16" y="1352.07"/>
      <point x="1417.29" y="1352.07" type="curve" smooth="yes"/>
      <point x="1578.39" y="1352.07"/>
      <point x="1739.49" y="1337"/>
      <point x="1900.59" y="1337" type="curve"/>
      <point x="1900.59" y="1273.25"/>
      <point x="1892.48" y="1046.09"/>
      <point x="1952.75" y="1007.84" type="curve"/>
      <point x="1926.09" y="985.823"/>
      <point x="1882.05" y="974.233"/>
      <point x="1848.44" y="974.233" type="curve" smooth="yes"/>
      <point x="1708.2" y="974.233"/>
      <point x="1542.46" y="1080.86"/>
      <point x="1551.73" y="1257.03" type="curve"/>
      <point x="1512.33" y="1273.25"/>
      <point x="1452.06" y="1273.25"/>
      <point x="1409.17" y="1273.25" type="curve" smooth="yes"/>
      <point x="1153.04" y="1273.25"/>
      <point x="962.406" y="1169.95"/>
      <point x="896.897" y="908.17" type="curve" smooth="yes"/>
      <point x="881.275" y="845.746"/>
      <point x="870.717" y="758.148"/>
      <point x="873.897" y="648.17" type="curve"/>
      <point x="904.967" y="654.144"/>
      <point x="1038.13" y="665.271"/>
      <point x="1168.29" y="667.867" type="curve" smooth="yes"/>
      <point x="1290.6" y="670.307"/>
      <point x="1410.26" y="664.395"/>
      <point x="1415.02" y="664.395" type="curve" smooth="yes"/>
      <point x="1613.21" y="664.395"/>
      <point x="1746.49" y="640.056"/>
      <point x="1746.49" y="412.892" type="curve" smooth="yes"/>
      <point x="1746.49" y="374.645"/>
      <point x="1745.33" y="335.239"/>
      <point x="1739.54" y="296.992" type="curve"/>
      <point x="1928.46" y="303.946"/>
      <point x="2118.53" y="310.9"/>
      <point x="2307.45" y="320.172" type="curve"/>
      <point x="2288.9" y="291.197"/>
      <point x="2285.43" y="204.272"/>
      <point x="2285.43" y="172.979" type="curve" smooth="yes"/>
      <point x="2285.43" y="128.937"/>
      <point x="2297.02" y="15.355"/>
      <point x="2352.65" y="-2.03004" type="curve"/>
      <point x="2339.9" y="-39.118"/>
      <point x="2226.32" y="-44.913"/>
      <point x="2198.5" y="-44.913" type="curve" smooth="yes"/>
      <point x="2028.13" y="-44.913"/>
      <point x="1956.27" y="59.397"/>
      <point x="1956.27" y="220.498" type="curve"/>
      <point x="1879.78" y="217.021"/>
      <point x="1804.44" y="213.544"/>
      <point x="1727.95" y="208.908" type="curve"/>
      <point x="1692.02" y="-49.549" type="line" smooth="yes"/>
      <point x="1687.03" y="-85.4309"/>
      <point x="1678.11" y="-148.064"/>
      <point x="1678.11" y="-185.152" type="curve" smooth="yes"/>
      <point x="1678.11" y="-204.855"/>
      <point x="1681.59" y="-250.056"/>
      <point x="1707.09" y="-253.533" type="curve"/>
      <point x="1707.09" y="-284.826" type="line"/>
      <point x="1623.64" y="-299.893"/>
      <point x="1493.83" y="-328.868"/>
      <point x="1430.09" y="-328.868" type="curve" smooth="yes"/>
      <point x="1373.29" y="-328.868"/>
      <point x="1338.52" y="-310.324"/>
      <point x="1338.52" y="-248.897" type="curve" smooth="yes"/>
      <point x="1338.52" y="-212.968"/>
      <point x="1345.27" y="-175.852"/>
      <point x="1350.11" y="-139.951" type="curve" smooth="yes"/>
      <point x="1395.32" y="195" type="line"/>
      <point x="1358.89" y="193.842"/>
      <point x="937.462" y="190.365"/>
      <point x="876.035" y="190.365" type="curve" smooth="yes"/>
      <point x="667.415" y="190.365"/>
      <point x="553.568" y="257.818"/>
      <point x="543.402" y="481.274" type="curve" smooth="yes"/>
      <point x="538.356" y="592.18"/>
      <point x="538.984" y="677.077"/>
    </contour>
    <contour>
      <point x="549.956" y="605.648" type="line"/>
      <point x="541.956" y="532.648" type="line"/>
      <point x="433.956" y="515.648" type="line"/>
      <point x="423.956" y="356.648"/>
      <point x="338.956" y="222.648"/>
      <point x="166.956" y="222.648" type="curve" smooth="yes"/>
      <point x="139.956" y="222.648"/>
      <point x="103.956" y="225.648"/>
      <point x="80.9562" y="241.648" type="curve"/>
      <point x="124.956" y="274.648"/>
      <point x="134.956" y="345.648"/>
      <point x="134.956" y="396.648" type="curve" smooth="yes"/>
      <point x="134.956" y="441.648"/>
      <point x="122.956" y="503.648"/>
      <point x="101.956" y="544.648" type="curve"/>
    </contour>
  </outline>
</glyph>
<glyph name="H" format="2">
  <advance width="1481"/>
  <unicode hex="0048"/>
  <outline>
    <contour>
      <point x="1414.54" y="1242.08" type="curve" smooth="yes"/>
      <point x="1414.54" y="1305.29"/>
      <point x="1389.04" y="1374.05"/>
      <point x="1314.73" y="1374.05" type="curve" smooth="yes"/>
      <point x="1290.34" y="1374.05"/>
      <point x="1269.34" y="1370.41"/>
      <point x="1245.98" y="1365.18" type="curve" smooth="yes"/>
      <point x="1053.01" y="1321.93" type="line"/>
      <point x="1053.01" y="1287.55" type="line"/>
      <point x="1084.06" y="1266.48"/>
      <point x="1116.94" y="1238.79"/>
      <point x="1112.9" y="1196.61" type="curve" smooth="yes"/>
      <point x="1091.82" y="977.029" type="line"/>
      <point x="857.826" y="933.778" type="line"/>
      <point x="857.826" y="1118.98"/>
      <point x="775.76" y="1269.8"/>
      <point x="571.704" y="1269.8" type="curve" smooth="yes"/>
      <point x="418.662" y="1269.8"/>
      <point x="252.312" y="1188.85"/>
      <point x="94.8339" y="1169.99" type="curve"/>
      <point x="99.2699" y="1134.51"/>
      <point x="103.706" y="1101.24"/>
      <point x="103.706" y="1065.75" type="curve" smooth="yes"/>
      <point x="103.706" y="1018.06"/>
      <point x="89.2889" y="974.811"/>
      <point x="66" y="933.778" type="curve"/>
      <point x="82.635" y="913.816"/>
      <point x="111.469" y="908.271"/>
      <point x="135.867" y="908.271" type="curve" smooth="yes"/>
      <point x="266.729" y="908.271"/>
      <point x="406.463" y="1021.39"/>
      <point x="406.463" y="1157.8" type="curve"/>
      <point x="424.207" y="1162.23"/>
      <point x="440.842" y="1167.78"/>
      <point x="458.586" y="1167.78" type="curve" smooth="yes"/>
      <point x="526.235" y="1167.78"/>
      <point x="558.396" y="1061.31"/>
      <point x="558.396" y="1008.08" type="curve" smooth="yes"/>
      <point x="558.396" y="973.702"/>
      <point x="555.689" y="940.492"/>
      <point x="551.742" y="906.053" type="curve" smooth="yes"/>
      <point x="470.785" y="199.62" type="line" smooth="yes"/>
      <point x="467.856" y="174.064"/>
      <point x="465.24" y="138.625"/>
      <point x="465.24" y="113.118" type="curve" smooth="yes"/>
      <point x="465.24" y="51.014"/>
      <point x="475.221" y="0"/>
      <point x="549.524" y="0" type="curve" smooth="yes"/>
      <point x="576.14" y="0"/>
      <point x="600.481" y="3.79686"/>
      <point x="626.045" y="6.65396" type="curve" smooth="yes"/>
      <point x="814.575" y="27.725" type="line"/>
      <point x="814.575" y="63.213" type="line"/>
      <point x="772.433" y="83.175"/>
      <point x="776.869" y="128.644"/>
      <point x="776.869" y="167.459" type="curve" smooth="yes"/>
      <point x="776.869" y="214.037"/>
      <point x="830.101" y="629.912"/>
      <point x="855.608" y="851.712" type="curve"/>
      <point x="1082.95" y="894.963" type="line"/>
      <point x="1005.32" y="192.966" type="line" smooth="yes"/>
      <point x="1002.37" y="166.305"/>
      <point x="1000.89" y="139.734"/>
      <point x="1000.89" y="113.118" type="curve" smooth="yes"/>
      <point x="1000.89" y="51.0139"/>
      <point x="1011.98" y="0"/>
      <point x="1085.17" y="0" type="curve" smooth="yes"/>
      <point x="1111.79" y="0"/>
      <point x="1136.14" y="3.67467"/>
      <point x="1162.8" y="6.65397" type="curve" smooth="yes"/>
      <point x="1351.33" y="27.725" type="line"/>
      <point x="1351.33" y="63.213" type="line"/>
      <point x="1322.5" y="75.412"/>
      <point x="1311.41" y="94.265"/>
      <point x="1311.41" y="192.966" type="curve" smooth="yes"/>
      <point x="1311.41" y="201.838"/>
      <point x="1311.55" y="211.802"/>
      <point x="1312.52" y="220.691" type="curve" smooth="yes"/>
      <point x="1405.67" y="1081.27" type="line" smooth="yes"/>
      <point x="1411.43" y="1134.48"/>
      <point x="1414.54" y="1188.85"/>
    </contour>
  </outline>
</glyph>
<glyph name="I" format="2">
  <advance width="849"/>
  <unicode hex="0049"/>
  <outline>
    <contour>
      <point x="780.728" y="896.12" type="curve" smooth="yes"/>
      <point x="780.728" y="960.724"/>
      <point x="732.796" y="991.984"/>
      <point x="672.36" y="991.984" type="curve" smooth="yes"/>
      <point x="614.008" y="991.984"/>
      <point x="503.556" y="977.396"/>
      <point x="422.28" y="966.976" type="curve"/>
      <point x="439.994" y="1318.13" type="line" smooth="yes"/>
      <point x="442.254" y="1362.93"/>
      <point x="397.272" y="1374.4"/>
      <point x="361.844" y="1374.4" type="curve" smooth="yes"/>
      <point x="328.5" y="1374.4"/>
      <point x="280.568" y="1369.19"/>
      <point x="247.224" y="1363.98" type="curve"/>
      <point x="68" y="1337.93" type="line"/>
      <point x="68" y="1303.54" type="line"/>
      <point x="107.596" y="1297.29"/>
      <point x="141.982" y="1282.7"/>
      <point x="141.982" y="1236.85" type="curve" smooth="yes"/>
      <point x="141.982" y="1180.59"/>
      <point x="113.848" y="1022.2"/>
      <point x="113.848" y="955.514" type="curve" smooth="yes"/>
      <point x="113.848" y="899.246"/>
      <point x="140.94" y="864.86"/>
      <point x="199.292" y="864.86" type="curve" smooth="yes"/>
      <point x="209.712" y="864.86"/>
      <point x="218.092" y="865.531"/>
      <point x="228.468" y="866.944" type="curve" smooth="yes"/>
      <point x="473.338" y="900.288" type="line"/>
      <point x="399.356" y="635.62"/>
      <point x="325.374" y="376.162"/>
      <point x="253.476" y="111.494" type="curve"/>
      <point x="238.888" y="40.638"/>
      <point x="305.576" y="0"/>
      <point x="368.096" y="0" type="curve" smooth="yes"/>
      <point x="381.642" y="0"/>
      <point x="394.188" y="0.5979"/>
      <point x="407.692" y="2.084" type="curve" smooth="yes"/>
      <point x="625.47" y="26.05" type="line"/>
      <point x="625.47" y="63.562" type="line"/>
      <point x="598.378" y="75.024"/>
      <point x="578.58" y="86.486"/>
      <point x="578.58" y="117.746" type="curve" smooth="yes"/>
      <point x="578.58" y="166.72"/>
      <point x="780.728" y="810.676"/>
    </contour>
  </outline>
</glyph>
<glyph name="J" format="2">
  <advance width="1005"/>
  <unicode hex="004A"/>
  <outline>
    <contour>
      <point x="951.396" y="268.758" type="curve" smooth="yes"/>
      <point x="951.396" y="324.324"/>
      <point x="939.312" y="385.653"/>
      <point x="926.448" y="438.858" type="curve" smooth="yes"/>
      <point x="759.75" y="1128.33" type="line" smooth="yes"/>
      <point x="752.639" y="1157.74"/>
      <point x="747.276" y="1189.57"/>
      <point x="747.276" y="1219.05" type="curve" smooth="yes"/>
      <point x="747.276" y="1259.87"/>
      <point x="766.554" y="1292.76"/>
      <point x="810.78" y="1292.76" type="curve"/>
      <point x="810.78" y="1330.18" type="line"/>
      <point x="582.846" y="1367.6" type="line" smooth="yes"/>
      <point x="556.722" y="1371.89"/>
      <point x="529.548" y="1374.41"/>
      <point x="503.466" y="1374.41" type="curve" smooth="yes"/>
      <point x="433.158" y="1374.41"/>
      <point x="399.138" y="1347.19"/>
      <point x="399.138" y="1274.62" type="curve" smooth="yes"/>
      <point x="399.138" y="1249.67"/>
      <point x="404.378" y="1209.87"/>
      <point x="410.478" y="1186.16" type="curve" smooth="yes"/>
      <point x="620.268" y="370.818" type="line" smooth="yes"/>
      <point x="628.698" y="338.055"/>
      <point x="631.608" y="300.51"/>
      <point x="631.608" y="266.49" type="curve" smooth="yes"/>
      <point x="631.608" y="192.78"/>
      <point x="613.464" y="104.328"/>
      <point x="522.744" y="104.328" type="curve" smooth="yes"/>
      <point x="492.126" y="104.328"/>
      <point x="455.838" y="112.266"/>
      <point x="427.488" y="124.74" type="curve"/>
      <point x="427.488" y="308.448"/>
      <point x="319.758" y="445.662"/>
      <point x="126.978" y="445.662" type="curve" smooth="yes"/>
      <point x="105.432" y="445.662"/>
      <point x="72.546" y="443.394"/>
      <point x="51" y="436.59" type="curve"/>
      <point x="91.824" y="385.56"/>
      <point x="115.638" y="303.912"/>
      <point x="115.638" y="239.274" type="curve" smooth="yes"/>
      <point x="115.638" y="207.522"/>
      <point x="104.298" y="166.698"/>
      <point x="90.69" y="138.348" type="curve"/>
      <point x="302.748" y="114.534"/>
      <point x="429.756" y="0"/>
      <point x="656.556" y="0" type="curve" smooth="yes"/>
      <point x="841.398" y="0"/>
      <point x="951.396" y="73.71"/>
    </contour>
  </outline>
</glyph>
<glyph name="K" format="2">
  <advance width="1303"/>
  <unicode hex="004B"/>
  <outline>
    <contour>
      <point x="1274.85" y="-62.957" type="line"/>
      <point x="1284.99" y="11.7484"/>
      <point x="1305.97" y="183.388"/>
      <point x="1301.83" y="236.029" type="curve" smooth="yes"/>
      <point x="1295.56" y="315.603"/>
      <point x="1258.23" y="336.069"/>
      <point x="1100.31" y="323.64" type="curve" smooth="yes"/>
      <point x="884.847" y="306.683"/>
      <point x="667.357" y="268.243"/>
      <point x="721.862" y="833.227" type="curve"/>
      <point x="879.299" y="961.406"/>
      <point x="994.993" y="993.915"/>
      <point x="1059.88" y="999.022" type="curve" smooth="yes"/>
      <point x="1106.4" y="1002.68"/>
      <point x="1178.08" y="999.702"/>
      <point x="1182.99" y="937.267" type="curve"/>
      <point x="1225.84" y="940.639" type="line"/>
      <point x="1235.46" y="1037.48"/>
      <point x="1249.22" y="1191.3"/>
      <point x="1243.54" y="1263.53" type="curve" smooth="yes"/>
      <point x="1236.31" y="1355.35"/>
      <point x="1163.48" y="1373.02"/>
      <point x="1083.9" y="1366.76" type="curve" smooth="yes"/>
      <point x="984.741" y="1358.95"/>
      <point x="872.601" y="1297.14"/>
      <point x="630.047" y="1092.07" type="curve" smooth="yes"/>
      <point x="445.27" y="935.848"/>
      <point x="297.967" y="819.574"/>
      <point x="156.082" y="791.162" type="curve"/>
      <point x="153.294" y="983.103" type="line"/>
      <point x="283.583" y="1017.99"/>
      <point x="379.905" y="1140.13"/>
      <point x="369.114" y="1277.24" type="curve" smooth="yes"/>
      <point x="367.476" y="1298.05"/>
      <point x="361.338" y="1360.39"/>
      <point x="351.034" y="1381.75" type="curve"/>
      <point x="293.842" y="1341.53"/>
      <point x="227.955" y="1317.87"/>
      <point x="158.175" y="1312.38" type="curve" smooth="yes"/>
      <point x="127.57" y="1309.97"/>
      <point x="96.6751" y="1311.23"/>
      <point x="66.7159" y="1316.27" type="curve"/>
      <point x="68.9576" y="-58.2439" type="line"/>
      <point x="115.931" y="-44.6926"/>
      <point x="167.348" y="-40.646"/>
      <point x="215.093" y="-36.8884" type="curve" smooth="yes"/>
      <point x="257.94" y="-33.5162"/>
      <point x="313.154" y="-46.4159"/>
      <point x="351.615" y="-65.561" type="curve"/>
      <point x="368.119" y="-24.8446"/>
      <point x="377.057" y="33.7533"/>
      <point x="373.685" y="76.6008" type="curve" smooth="yes"/>
      <point x="363.858" y="201.471"/>
      <point x="299.354" y="301.097"/>
      <point x="162.242" y="290.306" type="curve"/>
      <point x="159.607" y="449" type="line"/>
      <point x="309.483" y="485.431"/>
      <point x="473.879" y="619.086"/>
      <point x="628.193" y="755.642" type="curve"/>
      <point x="623.84" y="657.917"/>
      <point x="623.84" y="320.631"/>
      <point x="629.621" y="247.179" type="curve" smooth="yes"/>
      <point x="647.638" y="18.2505"/>
      <point x="817.497" y="-11.2544"/>
      <point x="976.101" y="-7.63435" type="curve" smooth="yes"/>
      <point x="1126.12" y="-4.21013"/>
      <point x="1221.84" y="-15.3939"/>
      <point x="1241.8" y="-65.5584" type="curve"/>
    </contour>
  </outline>
</glyph>
<glyph name="L" format="2">
  <advance width="1227"/>
  <unicode hex="004C"/>
  <outline>
    <contour>
      <point x="1190.89" y="52.732" type="curve"/>
      <point x="1132.75" y="81.8"/>
      <point x="1108.16" y="165.65"/>
      <point x="1108.16" y="224.904" type="curve" smooth="yes"/>
      <point x="1108.16" y="259.562"/>
      <point x="1117.1" y="307.636"/>
      <point x="1133.87" y="338.94" type="curve"/>
      <point x="1117.1" y="347.884"/>
      <point x="1086.91" y="350.12"/>
      <point x="1069.03" y="350.12" type="curve" smooth="yes"/>
      <point x="942.692" y="350.12"/>
      <point x="805.178" y="309.872"/>
      <point x="767.166" y="174.594" type="curve"/>
      <point x="706.794" y="143.29"/>
      <point x="621.826" y="122.048"/>
      <point x="554.746" y="122.048" type="curve" smooth="yes"/>
      <point x="436.238" y="122.048"/>
      <point x="406.052" y="174.594"/>
      <point x="406.052" y="286.394" type="curve" smooth="yes"/>
      <point x="406.052" y="665.396"/>
      <point x="1085.8" y="969.492"/>
      <point x="1085.8" y="1282.53" type="curve" smooth="yes"/>
      <point x="1085.8" y="1325.02"/>
      <point x="1065.67" y="1374.21"/>
      <point x="1016.48" y="1374.21" type="curve" smooth="yes"/>
      <point x="996.356" y="1374.21"/>
      <point x="975.186" y="1372.62"/>
      <point x="954.99" y="1369.74" type="curve" smooth="yes"/>
      <point x="712.384" y="1335.08" type="line"/>
      <point x="712.384" y="1287" type="line"/>
      <point x="731.39" y="1279.18"/>
      <point x="753.75" y="1256.82"/>
      <point x="753.75" y="1234.46" type="curve" smooth="yes"/>
      <point x="753.75" y="942.66"/>
      <point x="55" y="681.048"/>
      <point x="55" y="275.214" type="curve" smooth="yes"/>
      <point x="55" y="82.918"/>
      <point x="202.576" y="0.186009"/>
      <point x="378.102" y="0.186009" type="curve" smooth="yes"/>
      <point x="503.318" y="0.186009"/>
      <point x="666.546" y="46.024"/>
      <point x="782.818" y="96.334" type="curve"/>
      <point x="815.24" y="1.30401"/>
      <point x="910.27" y="-30"/>
      <point x="1003.06" y="-30" type="curve" smooth="yes"/>
      <point x="1067.91" y="-30"/>
      <point x="1149.52" y="-0.931999"/>
    </contour>
  </outline>
</glyph>
<glyph name="M" format="2">
  <advance width="2820"/>
  <unicode hex="004D"/>
  <outline>
    <contour>
      <point x="2756.45" y="348.975" type="curve" smooth="yes"/>
      <point x="2756.45" y="460.13"/>
      <point x="2699.58" y="563.53"/>
      <point x="2576.79" y="563.53" type="curve" smooth="yes"/>
      <point x="2478.56" y="563.53"/>
      <point x="2369.99" y="535.095"/>
      <point x="2276.93" y="507.953" type="curve"/>
      <point x="2280.81" y="612.645"/>
      <point x="2285.98" y="718.63"/>
      <point x="2285.98" y="823.323" type="curve" smooth="yes"/>
      <point x="2285.98" y="1185.22"/>
      <point x="2024.89" y="1373.93"/>
      <point x="1682.38" y="1373.93" type="curve" smooth="yes"/>
      <point x="1586.74" y="1373.93"/>
      <point x="1489.8" y="1364.88"/>
      <point x="1395.45" y="1353.25" type="curve"/>
      <point x="1346.33" y="1376.51" type="line"/>
      <point x="1206.74" y="1368.76"/>
      <point x="1069.71" y="1341.8"/>
      <point x="932.73" y="1320.93" type="curve" smooth="yes"/>
      <point x="738.826" y="1291.39"/>
      <point x="502.048" y="1203.65"/>
      <point x="351.105" y="1077.94" type="curve" smooth="yes"/>
      <point x="84.5704" y="855.97"/>
      <point x="59" y="458.837"/>
      <point x="59" y="137.005" type="curve" smooth="yes"/>
      <point x="59" y="46.53"/>
      <point x="79.68" y="0"/>
      <point x="175.325" y="0" type="curve" smooth="yes"/>
      <point x="230.902" y="0"/>
      <point x="283.782" y="10.7396"/>
      <point x="338.18" y="25.85" type="curve" smooth="yes"/>
      <point x="376.846" y="36.5905"/>
      <point x="415.731" y="53.2679"/>
      <point x="455.797" y="52.9925" type="curve" smooth="yes"/>
      <point x="791.849" y="50.6829"/>
      <point x="904.295" y="134.42"/>
      <point x="904.295" y="330.88" type="curve" smooth="yes"/>
      <point x="904.295" y="440.743"/>
      <point x="838.377" y="558.36"/>
      <point x="715.59" y="558.36" type="curve" smooth="yes"/>
      <point x="623.822" y="558.36"/>
      <point x="535.932" y="528.633"/>
      <point x="442.872" y="527.34" type="curve"/>
      <point x="446.75" y="858.22"/>
      <point x="574.707" y="1217.54"/>
      <point x="962.457" y="1217.54" type="curve" smooth="yes"/>
      <point x="1029.67" y="1217.54"/>
      <point x="1046.47" y="1207.2"/>
      <point x="1046.47" y="1169.71" type="curve" smooth="yes"/>
      <point x="1046.47" y="1075.36"/>
      <point x="993.477" y="165.44"/>
      <point x="993.477" y="96.9375" type="curve" smooth="yes"/>
      <point x="993.477" y="9.04754"/>
      <point x="1018.03" y="0"/>
      <point x="1102.05" y="0" type="curve" smooth="yes"/>
      <point x="1202.86" y="0"/>
      <point x="1294.63" y="50.4075"/>
      <point x="1382.52" y="50.4075" type="curve" smooth="yes"/>
      <point x="1536.33" y="50.4075" type="line" smooth="yes"/>
      <point x="1708.23" y="50.4075"/>
      <point x="1821.97" y="135.713"/>
      <point x="1821.97" y="315.37" type="curve" smooth="yes"/>
      <point x="1821.97" y="430.403"/>
      <point x="1744.42" y="529.925"/>
      <point x="1624.22" y="529.925" type="curve" smooth="yes"/>
      <point x="1577.69" y="529.925"/>
      <point x="1535.1" y="519.113"/>
      <point x="1488.5" y="513.123" type="curve" smooth="yes"/>
      <point x="1444.62" y="507.48"/>
      <point x="1400.61" y="507.953"/>
      <point x="1356.67" y="507.953" type="curve"/>
      <point x="1390.27" y="1233.05" type="line" smooth="yes"/>
      <point x="1391.65" y="1262.77"/>
      <point x="1457.49" y="1270.53"/>
      <point x="1566.06" y="1270.53" type="curve" smooth="yes"/>
      <point x="1840.07" y="1270.53"/>
      <point x="1943.47" y="1107.67"/>
      <point x="1943.47" y="849.173" type="curve" smooth="yes"/>
      <point x="1943.47" y="685.025"/>
      <point x="1909.86" y="264.963"/>
      <point x="1909.86" y="143.468" type="curve" smooth="yes"/>
      <point x="1909.86" y="51.7"/>
      <point x="1926.66" y="0"/>
      <point x="2028.77" y="0" type="curve" smooth="yes"/>
      <point x="2129.59" y="0"/>
      <point x="2195.52" y="30.6753"/>
      <point x="2280.81" y="34.8975" type="curve" smooth="yes"/>
      <point x="2326.06" y="37.1379"/>
      <point x="2370.01" y="38.1608"/>
      <point x="2415.23" y="40.0675" type="curve" smooth="yes"/>
      <point x="2584.57" y="47.2085"/>
      <point x="2756.45" y="165.44"/>
    </contour>
    <contour>
      <point x="2450.12" y="280.473" type="curve" smooth="yes"/>
      <point x="2450.12" y="210.678"/>
      <point x="2426.86" y="121.495"/>
      <point x="2341.56" y="121.495" type="curve" smooth="yes"/>
      <point x="2265.3" y="121.495"/>
      <point x="2258.84" y="164.148"/>
      <point x="2258.84" y="232.65" type="curve" smooth="yes"/>
      <point x="2258.84" y="293.398"/>
      <point x="2261.42" y="358.023"/>
      <point x="2269.18" y="418.77" type="curve"/>
      <point x="2292.44" y="429.11"/>
      <point x="2318.29" y="436.865"/>
      <point x="2344.14" y="436.865" type="curve" smooth="yes"/>
      <point x="2433.32" y="436.865"/>
      <point x="2450.13" y="351.56"/>
    </contour>
    <contour>
      <point x="1533.74" y="293.397" type="curve" smooth="yes"/>
      <point x="1533.74" y="217.14"/>
      <point x="1516.94" y="137.005"/>
      <point x="1425.17" y="137.005" type="curve" smooth="yes"/>
      <point x="1338.58" y="137.005"/>
      <point x="1343.75" y="171.902"/>
      <point x="1343.75" y="249.452" type="curve" smooth="yes"/>
      <point x="1343.75" y="307.615"/>
      <point x="1347.62" y="365.777"/>
      <point x="1351.5" y="423.94" type="curve"/>
      <point x="1373.47" y="434.28"/>
      <point x="1403.2" y="442.035"/>
      <point x="1427.76" y="442.035" type="curve" smooth="yes"/>
      <point x="1515.65" y="442.035"/>
      <point x="1533.74" y="365.777"/>
    </contour>
    <contour>
      <point x="614.775" y="295.983" type="curve" smooth="yes"/>
      <point x="614.775" y="227.48"/>
      <point x="594.095" y="137.005"/>
      <point x="508.79" y="137.005" type="curve" smooth="yes"/>
      <point x="432.533" y="137.005"/>
      <point x="427.363" y="182.243"/>
      <point x="427.363" y="249.453" type="curve" smooth="yes"/>
      <point x="427.363" y="307.615"/>
      <point x="429.948" y="367.07"/>
      <point x="437.703" y="423.94" type="curve"/>
      <point x="459.675" y="432.988"/>
      <point x="486.818" y="442.035"/>
      <point x="511.375" y="442.035" type="curve" smooth="yes"/>
      <point x="599.265" y="442.035"/>
      <point x="614.775" y="368.363"/>
    </contour>
  </outline>
</glyph>
<glyph name="N" format="2">
  <advance width="1749"/>
  <unicode hex="004E"/>
  <outline>
    <contour>
      <point x="53.762" y="53.859" type="line"/>
      <point x="132.479" y="35.906"/>
      <point x="299.58" y="0"/>
      <point x="368.63" y="0" type="curve" smooth="yes"/>
      <point x="451.49" y="0"/>
      <point x="469.443" y="110.48"/>
      <point x="469.443" y="172.625" type="curve" smooth="yes"/>
      <point x="469.443" y="381.156"/>
      <point x="407.298" y="834.124"/>
      <point x="407.298" y="1089.61" type="curve" smooth="yes"/>
      <point x="407.298" y="1219.42"/>
      <point x="441.823" y="1265"/>
      <point x="517.778" y="1265" type="curve" smooth="yes"/>
      <point x="637.925" y="1265"/>
      <point x="673.731" y="1113.08"/>
      <point x="686.26" y="690.5" type="curve" smooth="yes"/>
      <point x="704.113" y="88.381"/>
      <point x="810.55" y="0"/>
      <point x="1314.62" y="0" type="curve" smooth="yes"/>
      <point x="1621.2" y="0"/>
      <point x="1688.87" y="122.909"/>
      <point x="1688.87" y="545.495" type="curve" smooth="yes"/>
      <point x="1688.87" y="987.415"/>
      <point x="1588.05" y="1208.38"/>
      <point x="1222.09" y="1208.38" type="curve"/>
      <point x="1222.09" y="1173.85" type="line"/>
      <point x="1282.85" y="1151.75"/>
      <point x="1328.43" y="969.462"/>
      <point x="1328.43" y="566.21" type="curve" smooth="yes"/>
      <point x="1328.43" y="198.864"/>
      <point x="1295.28" y="110.48"/>
      <point x="1205.52" y="110.48" type="curve" smooth="yes"/>
      <point x="1101.94" y="110.48"/>
      <point x="1063.24" y="208.53"/>
      <point x="1056.37" y="607.64" type="curve" smooth="yes"/>
      <point x="1049.43" y="1010.89"/>
      <point x="1021.97" y="1160.19"/>
      <point x="950.031" y="1223.57" type="curve" smooth="yes"/>
      <point x="905.969" y="1262.38"/>
      <point x="843.788" y="1283.24"/>
      <point x="788.454" y="1300.9" type="curve" smooth="yes"/>
      <point x="649.066" y="1345.39"/>
      <point x="521.921" y="1374.1"/>
      <point x="372.773" y="1374.1" type="curve" smooth="yes"/>
      <point x="95.192" y="1374.1"/>
      <point x="51" y="1231.85"/>
      <point x="51" y="973.605" type="curve" smooth="yes"/>
      <point x="51" y="766.455"/>
      <point x="91.049" y="401.871"/>
      <point x="91.049" y="194.721" type="curve" smooth="yes"/>
      <point x="91.049" y="132.576"/>
      <point x="80" y="102.194"/>
      <point x="60.666" y="102.194" type="curve"/>
      <point x="57.904" y="102.194"/>
      <point x="55.142" y="102.194"/>
      <point x="53.761" y="103.575" type="curve"/>
    </contour>
  </outline>
</glyph>
<glyph name="O" format="2">
  <advance width="1225"/>
  <unicode hex="004F"/>
  <outline>
    <contour>
      <point x="1100.06" y="916.974" type="curve" smooth="yes"/>
      <point x="1037.28" y="1151.25"/>
      <point x="937.583" y="1286.54"/>
      <point x="672.959" y="1241.28" type="curve"/>
      <point x="579.152" y="1646.8" type="line" smooth="yes"/>
      <point x="568.274" y="1693.82"/>
      <point x="541.696" y="1711.01"/>
      <point x="493.832" y="1698.19" type="curve" smooth="yes"/>
      <point x="481.237" y="1694.81"/>
      <point x="467.798" y="1689.68"/>
      <point x="455.798" y="1683.95" type="curve" smooth="yes"/>
      <point x="217.632" y="1570.18" type="line"/>
      <point x="228.095" y="1531.13" type="line"/>
      <point x="254.118" y="1544.85"/>
      <point x="274.771" y="1482.89"/>
      <point x="276.121" y="1477.85" type="curve"/>
      <point x="361.828" y="1102.57" type="line"/>
      <point x="44.3643" y="851.451"/>
      <point x="38.2249" y="577.106"/>
      <point x="137.112" y="208.053" type="curve" smooth="yes"/>
      <point x="187.737" y="19.1181"/>
      <point x="264.97" y="-153.238"/>
      <point x="489.173" y="-93.1625" type="curve" smooth="yes"/>
      <point x="613.87" y="-59.75"/>
      <point x="700.18" y="41.5383"/>
      <point x="757.002" y="81.2021" type="curve" smooth="yes"/>
      <point x="778.653" y="96.3153"/>
      <point x="800.569" y="105.026"/>
      <point x="823.488" y="115.217" type="curve"/>
      <point x="863.951" y="135.509"/>
      <point x="898.657" y="157.865"/>
      <point x="933.944" y="186.664" type="curve" smooth="yes"/>
      <point x="1174.49" y="382.976"/>
      <point x="1176" y="633.571"/>
    </contour>
    <contour>
      <point x="744.426" y="904.032" type="curve" smooth="yes"/>
      <point x="785.601" y="750.365"/>
      <point x="803.487" y="493.155"/>
      <point x="787.435" y="340.457" type="curve" smooth="yes"/>
      <point x="772.675" y="200.049"/>
      <point x="728.273" y="153.154"/>
      <point x="645.141" y="130.879" type="curve" smooth="yes"/>
      <point x="539.338" y="102.529"/>
      <point x="506.287" y="205.723"/>
      <point x="484.349" y="287.595" type="curve" smooth="yes"/>
      <point x="447.899" y="423.628"/>
      <point x="392.556" y="862.336"/>
      <point x="426.393" y="987.566" type="curve" smooth="yes"/>
      <point x="444.07" y="1052.99"/>
      <point x="484.549" y="1103.05"/>
      <point x="551.306" y="1120.94" type="curve" smooth="yes"/>
      <point x="668.446" y="1152.32"/>
      <point x="722.151" y="987.164"/>
    </contour>
  </outline>
</glyph>
<glyph name="P" format="2">
  <advance width="946"/>
  <unicode hex="0050"/>
  <outline>
    <contour>
      <point x="865.08" y="1137.38" type="curve" smooth="yes"/>
      <point x="865.08" y="1308.04"/>
      <point x="756.96" y="1373.76"/>
      <point x="597.96" y="1373.76" type="curve" smooth="yes"/>
      <point x="329.78" y="1373.76"/>
      <point x="51" y="1257.16"/>
      <point x="51" y="948.7" type="curve" smooth="yes"/>
      <point x="51" y="707.02"/>
      <point x="215.3" y="669.92"/>
      <point x="215.3" y="192.92" type="curve" smooth="yes"/>
      <point x="215.3" y="150.52"/>
      <point x="208.94" y="109.18"/>
      <point x="208.94" y="66.78" type="curve" smooth="yes"/>
      <point x="208.94" y="15.9"/>
      <point x="263" y="0"/>
      <point x="304.34" y="0" type="curve" smooth="yes"/>
      <point x="349.92" y="0"/>
      <point x="495.14" y="30.74"/>
      <point x="558.74" y="43.46" type="curve"/>
      <point x="558.74" y="69.96" type="line"/>
      <point x="508.92" y="77.38"/>
      <point x="500.44" y="155.82"/>
      <point x="500.44" y="349.8" type="curve" smooth="yes"/>
      <point x="500.44" y="490.78"/>
      <point x="478.18" y="598.9"/>
      <point x="417.76" y="725.04" type="curve"/>
      <point x="642.48" y="747.3"/>
      <point x="865.08" y="890.4"/>
    </contour>
    <contour>
      <point x="586.3" y="1168.12" type="curve" smooth="yes"/>
      <point x="586.3" y="1025.02"/>
      <point x="514.22" y="858.6"/>
      <point x="382.78" y="789.7" type="curve"/>
      <point x="344.62" y="864.96"/>
      <point x="324.48" y="927.5"/>
      <point x="324.48" y="1013.36" type="curve" smooth="yes"/>
      <point x="324.48" y="1195.68"/>
      <point x="428.36" y="1290.02"/>
      <point x="497.26" y="1290.02" type="curve" smooth="yes"/>
      <point x="556.62" y="1290.02"/>
      <point x="586.3" y="1217.94"/>
    </contour>
  </outline>
</glyph>
<glyph name="Q" format="2">
  <advance width="1595"/>
  <unicode hex="0051"/>
  <outline>
    <contour>
      <point x="91.1861" y="223.997" type="curve" smooth="yes"/>
      <point x="133.511" y="66.0396"/>
      <point x="260.427" y="22.7583"/>
      <point x="408.084" y="62.3226" type="curve" smooth="yes"/>
      <point x="484.773" y="82.8716"/>
      <point x="559.623" y="110.288"/>
      <point x="633.859" y="139.994" type="curve"/>
      <point x="639.221" y="60.462"/>
      <point x="649.003" y="-76.7723"/>
      <point x="662.805" y="-128.28" type="curve" smooth="yes"/>
      <point x="679.367" y="-190.09"/>
      <point x="712.602" y="-213.609"/>
      <point x="776.172" y="-203.409" type="curve" smooth="yes"/>
      <point x="1084.34" y="-153.958" type="line"/>
      <point x="1070.57" y="-189.545"/>
      <point x="1066.34" y="-228.709"/>
      <point x="1076.46" y="-266.482" type="curve" smooth="yes"/>
      <point x="1110.2" y="-392.39"/>
      <point x="1249.42" y="-380.85"/>
      <point x="1349" y="-354.167" type="curve" smooth="yes"/>
      <point x="1410.81" y="-337.605"/>
      <point x="1468.41" y="-309.904"/>
      <point x="1515.68" y="-266.566" type="curve"/>
      <point x="1470.24" y="-248.072"/>
      <point x="1440.09" y="-181.317"/>
      <point x="1428.13" y="-136.677" type="curve" smooth="yes"/>
      <point x="1415.55" y="-89.7473"/>
      <point x="1406.61" y="-19.761"/>
      <point x="1444.2" y="18.5266" type="curve"/>
      <point x="1389.85" y="19.9119"/>
      <point x="1331.61" y="12.896"/>
      <point x="1278.96" y="-1.21227" type="curve" smooth="yes"/>
      <point x="1228.6" y="-14.7071"/>
      <point x="1180.38" y="-36.2143"/>
      <point x="1142.18" y="-72.2127" type="curve"/>
      <point x="1056.91" y="-60.7122"/>
      <point x="999.713" y="-44.1401"/>
      <point x="975.483" y="46.285" type="curve" smooth="yes"/>
      <point x="969.349" y="69.1775"/>
      <point x="954.824" y="214.955"/>
      <point x="951.264" y="255.713" type="curve"/>
      <point x="1199.71" y="335.778"/>
      <point x="1529.43" y="487.922"/>
      <point x="1443.87" y="807.271" type="curve" smooth="yes"/>
      <point x="1401.23" y="966.374"/>
      <point x="1271.46" y="974.539"/>
      <point x="1135.25" y="938.041" type="curve" smooth="yes"/>
      <point x="1075.73" y="922.093"/>
      <point x="974.635" y="882.737"/>
      <point x="896.965" y="852.111" type="curve"/>
      <point x="868.686" y="1200.31" type="line" smooth="yes"/>
      <point x="865.752" y="1236.44"/>
      <point x="860.115" y="1282.66"/>
      <point x="852.754" y="1310.13" type="curve" smooth="yes"/>
      <point x="830.672" y="1392.54"/>
      <point x="803.688" y="1424.57"/>
      <point x="717.841" y="1401.57" type="curve" smooth="yes"/>
      <point x="692.66" y="1394.82"/>
      <point x="663.794" y="1383.47"/>
      <point x="639.558" y="1373.23" type="curve" smooth="yes"/>
      <point x="441.193" y="1289.41" type="line"/>
      <point x="450.394" y="1255.07" type="line"/>
      <point x="496.733" y="1251.54"/>
      <point x="517.358" y="1238.66"/>
      <point x="536.68" y="1166.55" type="curve" smooth="yes"/>
      <point x="544.961" y="1135.65"/>
      <point x="549.61" y="1102.64"/>
      <point x="552.366" y="1071.38" type="curve" smooth="yes"/>
      <point x="581.849" y="737.006" type="line"/>
      <point x="251.015" y="616.462"/>
      <point x="26.4723" y="465.513"/>
    </contour>
    <contour>
      <point x="943.897" y="351.883" type="curve"/>
      <point x="907.152" y="759.15" type="line"/>
      <point x="923.401" y="767.184"/>
      <point x="940.264" y="772.929"/>
      <point x="957.433" y="777.53" type="curve" smooth="yes"/>
      <point x="1059.3" y="804.826"/>
      <point x="1107.77" y="742.978"/>
      <point x="1132.31" y="651.409" type="curve" smooth="yes"/>
      <point x="1177.09" y="484.294"/>
      <point x="1104.14" y="394.821"/>
    </contour>
    <contour>
      <point x="421.938" y="349.426" type="curve" smooth="yes"/>
      <point x="391.575" y="462.744"/>
      <point x="444.298" y="609.366"/>
      <point x="565.627" y="641.876" type="curve" smooth="yes"/>
      <point x="572.495" y="643.716"/>
      <point x="580.814" y="644.718"/>
      <point x="587.989" y="645.414" type="curve"/>
      <point x="625.961" y="233.569" type="line"/>
      <point x="581.321" y="221.607" type="line" smooth="yes"/>
      <point x="493.185" y="197.991"/>
      <point x="441.567" y="276.17"/>
    </contour>
  </outline>
</glyph>
<glyph name="R" format="2">
  <advance width="1207"/>
  <unicode hex="0052"/>
  <outline>
    <contour>
      <point x="1206.63" y="47.952" type="line"/>
      <point x="1204.31" y="76.902" type="line"/>
      <point x="1162.63" y="76.902"/>
      <point x="1142.9" y="132.483"/>
      <point x="1130.2" y="309.66" type="curve" smooth="yes"/>
      <point x="1119.74" y="455.565"/>
      <point x="1085.04" y="616.53"/>
      <point x="919.446" y="616.53" type="curve" smooth="yes"/>
      <point x="851.124" y="616.53"/>
      <point x="781.644" y="616.53"/>
      <point x="713.322" y="614.214" type="curve"/>
      <point x="730.692" y="633.9" type="line" smooth="yes"/>
      <point x="777.903" y="687.405"/>
      <point x="826.718" y="738.195"/>
      <point x="873.126" y="792.546" type="curve" smooth="yes"/>
      <point x="955.256" y="888.735"/>
      <point x="1019.03" y="968.562"/>
      <point x="1019.03" y="1100.57" type="curve" smooth="yes"/>
      <point x="1019.03" y="1311.33"/>
      <point x="875.442" y="1373.86"/>
      <point x="683.214" y="1373.86" type="curve" smooth="yes"/>
      <point x="414.558" y="1373.86"/>
      <point x="149.376" y="1296.28"/>
      <point x="149.376" y="977.826" type="curve" smooth="yes"/>
      <point x="149.376" y="859.71"/>
      <point x="198.012" y="778.65"/>
      <point x="324.234" y="778.65" type="curve" smooth="yes"/>
      <point x="391.398" y="778.65"/>
      <point x="457.404" y="787.914"/>
      <point x="523.41" y="790.23" type="curve"/>
      <point x="473.616" y="735.804"/>
      <point x="423.368" y="679.533"/>
      <point x="371.712" y="629.268" type="curve" smooth="yes"/>
      <point x="122.285" y="386.557"/>
      <point x="66" y="267.972"/>
      <point x="66" y="152.172" type="curve" smooth="yes"/>
      <point x="66" y="59.532"/>
      <point x="122.742" y="31.74"/>
      <point x="206.118" y="31.74" type="curve" smooth="yes"/>
      <point x="231.594" y="31.74"/>
      <point x="254.756" y="36.3474"/>
      <point x="279.072" y="38.6879" type="curve" smooth="yes"/>
      <point x="495.618" y="59.5319" type="line"/>
      <point x="495.618" y="93.1139" type="line"/>
      <point x="428.454" y="105.852"/>
      <point x="400.662" y="125.538"/>
      <point x="400.662" y="197.334" type="curve" smooth="yes"/>
      <point x="400.662" y="251.76"/>
      <point x="440.034" y="320.082"/>
      <point x="638.052" y="531.996" type="curve"/>
      <point x="777.012" y="511.152"/>
      <point x="790.075" y="406.963"/>
      <point x="801.33" y="287.658" type="curve" smooth="yes"/>
      <point x="807.445" y="222.84"/>
      <point x="818.24" y="63.6657"/>
      <point x="869.652" y="16.6859" type="curve" smooth="yes"/>
      <point x="885.415" y="2.28217"/>
      <point x="905.55" y="-3"/>
      <point x="926.394" y="-3" type="curve" smooth="yes"/>
      <point x="947.238" y="-3"/>
      <point x="966.988" y="1.28495"/>
      <point x="986.61" y="5.106" type="curve" smooth="yes"/>
    </contour>
    <contour>
      <point x="706.374" y="1131.84" type="curve" smooth="yes"/>
      <point x="706.374" y="1027.62"/>
      <point x="657.738" y="950.034"/>
      <point x="595.206" y="871.29" type="curve"/>
      <point x="489.828" y="881.712"/>
      <point x="448.14" y="937.296"/>
      <point x="448.14" y="1039.2" type="curve" smooth="yes"/>
      <point x="448.14" y="1127.21"/>
      <point x="485.196" y="1267.33"/>
      <point x="595.206" y="1267.33" type="curve" smooth="yes"/>
      <point x="677.424" y="1267.33"/>
      <point x="706.374" y="1205.95"/>
    </contour>
  </outline>
</glyph>
<glyph name="S" format="2">
  <advance width="1268"/>
  <unicode hex="0053"/>
  <outline>
    <contour>
      <point x="1187.73" y="1160.35" type="curve" smooth="yes"/>
      <point x="1187.73" y="1301.07"/>
      <point x="1077.69" y="1406.87"/>
      <point x="938.038" y="1406.87" type="curve" smooth="yes"/>
      <point x="650.262" y="1406.87"/>
      <point x="348.732" y="1262.98"/>
      <point x="348.732" y="937.116" type="curve" smooth="yes"/>
      <point x="348.732" y="735.038"/>
      <point x="459.822" y="452.552"/>
      <point x="559.274" y="273.75" type="curve"/>
      <point x="383.646" y="213.444" type="line"/>
      <point x="358.254" y="242.01"/>
      <point x="299.006" y="251.532"/>
      <point x="264.092" y="251.532" type="curve" smooth="yes"/>
      <point x="206.96" y="251.532"/>
      <point x="130.784" y="225.082"/>
      <point x="80" y="197.574" type="curve"/>
      <point x="93.754" y="144.674"/>
      <point x="104.334" y="86.484"/>
      <point x="104.334" y="31.468" type="curve" smooth="yes"/>
      <point x="104.334" y="-9.794"/>
      <point x="96.928" y="-61.636"/>
      <point x="80" y="-100.782" type="curve"/>
      <point x="97.986" y="-115.594"/>
      <point x="131.842" y="-123"/>
      <point x="154.06" y="-123" type="curve" smooth="yes"/>
      <point x="266.208" y="-123"/>
      <point x="431.256" y="-48.94"/>
      <point x="431.256" y="83.31" type="curve" smooth="yes"/>
      <point x="431.256" y="99.18"/>
      <point x="429.14" y="133.036"/>
      <point x="420.676" y="149.964" type="curve"/>
      <point x="830.122" y="297.026" type="line"/>
      <point x="752.888" y="448.32"/>
      <point x="684.118" y="616.542"/>
      <point x="650.262" y="782.648" type="curve"/>
      <point x="897.834" y="786.88"/>
      <point x="1187.73" y="859.882"/>
    </contour>
    <contour>
      <point x="927.458" y="1216.43" type="curve" smooth="yes"/>
      <point x="927.458" y="1064.08"/>
      <point x="776.164" y="911.724"/>
      <point x="639.682" y="865.172" type="curve"/>
      <point x="625.928" y="1021.76"/>
      <point x="683.06" y="1320.11"/>
      <point x="851.282" y="1320.11" type="curve" smooth="yes"/>
      <point x="910.53" y="1320.11"/>
      <point x="927.458" y="1266.15"/>
    </contour>
  </outline>
</glyph>
<glyph name="T" format="2">
  <advance width="1752"/>
  <unicode hex="0054"/>
  <outline>
    <contour>
      <point x="1718.6" y="1099.25" type="curve"/>
      <point x="1672.85" y="1135.37"/>
      <point x="1659.6" y="1241.32"/>
      <point x="1659.6" y="1294.3" type="curve" smooth="yes"/>
      <point x="1659.6" y="1334.03"/>
      <point x="1663.22" y="1391.82"/>
      <point x="1677.66" y="1430.35" type="curve"/>
      <point x="54.672" y="1331.62" type="line"/>
      <point x="87.18" y="1289.48"/>
      <point x="104.036" y="1220.86"/>
      <point x="104.036" y="1169.08" type="curve" smooth="yes"/>
      <point x="104.036" y="1114.9"/>
      <point x="76.344" y="1051.09"/>
      <point x="33" y="1016.18" type="curve"/>
      <point x="78.752" y="994.504"/>
      <point x="142.564" y="976.444"/>
      <point x="193.132" y="976.444" type="curve" smooth="yes"/>
      <point x="337.612" y="976.444"/>
      <point x="474.868" y="1126.94"/>
      <point x="461.624" y="1265.4" type="curve"/>
      <point x="466.44" y="1270.22"/>
      <point x="673.528" y="1281.06"/>
      <point x="695.2" y="1282.26" type="curve"/>
      <point x="638.612" y="872.9" type="line"/>
      <point x="828.844" y="872.9" type="line"/>
      <point x="751.788" y="332.304" type="line" smooth="yes"/>
      <point x="743.378" y="273.305"/>
      <point x="727.708" y="154.112"/>
      <point x="727.708" y="114.38" type="curve" smooth="yes"/>
      <point x="727.708" y="60.2"/>
      <point x="744.564" y="0"/>
      <point x="836.068" y="0" type="curve" smooth="yes"/>
      <point x="862.556" y="0"/>
      <point x="886.652" y="4.64141"/>
      <point x="913.124" y="7.22401" type="curve" smooth="yes"/>
      <point x="1110.58" y="26.488" type="line"/>
      <point x="1110.58" y="58.996" type="line"/>
      <point x="1076.87" y="84.28"/>
      <point x="1063.62" y="133.644"/>
      <point x="1063.62" y="174.58" type="curve" smooth="yes"/>
      <point x="1063.62" y="223.944"/>
      <point x="1073.87" y="276.833"/>
      <point x="1080.48" y="325.08" type="curve" smooth="yes"/>
      <point x="1162.35" y="922.264" type="line"/>
      <point x="974.528" y="922.264" type="line"/>
      <point x="1033.52" y="1301.52" type="line"/>
      <point x="1287.57" y="1314.77" type="line"/>
      <point x="1279.14" y="1140.19"/>
      <point x="1368.24" y="1052.3"/>
      <point x="1544.02" y="1052.3" type="curve" smooth="yes"/>
      <point x="1599.4" y="1052.3"/>
      <point x="1670.44" y="1070.36"/>
    </contour>
  </outline>
</glyph>
<glyph name="U" format="2">
  <advance width="1263"/>
  <unicode hex="0055"/>
  <outline>
    <contour>
      <point x="1207.14" y="942.975" type="curve" smooth="yes"/>
      <point x="1207.14" y="1123.57"/>
      <point x="1207.14" y="1373.89"/>
      <point x="1117.99" y="1373.89" type="curve" smooth="yes"/>
      <point x="1064.27" y="1373.89"/>
      <point x="885.96" y="1323.59"/>
      <point x="823.095" y="1306.45" type="curve"/>
      <point x="823.095" y="1268.73" type="line"/>
      <point x="869.958" y="1242.44"/>
      <point x="884.817" y="1127"/>
      <point x="884.817" y="973.836" type="curve" smooth="yes"/>
      <point x="884.817" y="802.386"/>
      <point x="851.67" y="109.728"/>
      <point x="612.783" y="109.728" type="curve" smooth="yes"/>
      <point x="508.77" y="109.728"/>
      <point x="474.48" y="185.166"/>
      <point x="474.48" y="278.892" type="curve" smooth="yes"/>
      <point x="474.48" y="310.896"/>
      <point x="494.374" y="418.25"/>
      <point x="506.484" y="483.489" type="curve" smooth="yes"/>
      <point x="529.807" y="609.134"/>
      <point x="553.347" y="736.092"/>
      <point x="577.35" y="861.822" type="curve"/>
      <point x="402.471" y="826.389" type="line"/>
      <point x="415.044" y="893.826"/>
      <point x="458.478" y="1080.13"/>
      <point x="458.478" y="1141.86" type="curve" smooth="yes"/>
      <point x="458.478" y="1193.29"/>
      <point x="452.763" y="1242.44"/>
      <point x="389.898" y="1242.44" type="curve" smooth="yes"/>
      <point x="336.177" y="1242.44"/>
      <point x="159.012" y="1197.86"/>
      <point x="85.86" y="1179.58" type="curve"/>
      <point x="85.86" y="1152.14" type="line"/>
      <point x="120.15" y="1145.29"/>
      <point x="132.723" y="1096.14"/>
      <point x="132.723" y="1069.85" type="curve" smooth="yes"/>
      <point x="132.723" y="1012.7"/>
      <point x="84.717" y="785.241"/>
      <point x="63" y="672.084" type="curve"/>
      <point x="228.735" y="701.802" type="line"/>
      <point x="208.161" y="581.787"/>
      <point x="168.156" y="357.759"/>
      <point x="168.156" y="288.036" type="curve" smooth="yes"/>
      <point x="168.156" y="94.869"/>
      <point x="249.309" y="0"/>
      <point x="451.62" y="0" type="curve" smooth="yes"/>
      <point x="640.215" y="0"/>
      <point x="840.177" y="52.6464"/>
      <point x="980.829" y="182.88" type="curve" smooth="yes"/>
      <point x="1179.65" y="366.971"/>
      <point x="1207.14" y="689.229"/>
    </contour>
  </outline>
</glyph>
<glyph name="V" format="2">
  <advance width="1080"/>
  <unicode hex="0056"/>
  <outline>
    <contour>
      <point x="20.2365" y="1331.55" type="line"/>
      <point x="20.2365" y="1292.3" type="line"/>
      <point x="235.62" y="1231.82"/>
      <point x="9.62654" y="431.827"/>
      <point x="402.197" y="225.993" type="curve"/>
      <point x="501.931" y="0" type="line"/>
      <point x="769.303" y="91.246" type="line"/>
      <point x="680.179" y="253.579" type="line"/>
      <point x="1001.66" y="519.89"/>
      <point x="1058.96" y="821.214"/>
      <point x="1058.96" y="1219.09" type="curve" smooth="yes"/>
      <point x="1058.96" y="1293.36"/>
      <point x="1045.16" y="1373.99"/>
      <point x="953.917" y="1373.99" type="curve" smooth="yes"/>
      <point x="942.246" y="1373.99"/>
      <point x="929.5" y="1373.01"/>
      <point x="917.843" y="1370.81" type="curve" smooth="yes"/>
      <point x="698.216" y="1329.43" type="line"/>
      <point x="698.216" y="1296.54" type="line"/>
      <point x="775.669" y="1272.14"/>
      <point x="771.425" y="1180.89"/>
      <point x="771.425" y="1116.17" type="curve" smooth="yes"/>
      <point x="771.425" y="857.288"/>
      <point x="740.656" y="628.112"/>
      <point x="526.334" y="460.474" type="curve"/>
      <point x="470.101" y="537.927"/>
      <point x="449.772" y="645.067"/>
      <point x="438.271" y="738.456" type="curve" smooth="yes"/>
      <point x="423.247" y="860.45"/>
      <point x="423.712" y="984.631"/>
      <point x="413.868" y="1107.68" type="curve" smooth="yes"/>
      <point x="402.492" y="1249.88"/>
      <point x="374.611" y="1370.81"/>
      <point x="271.694" y="1370.81" type="curve" smooth="yes"/>
      <point x="263.206" y="1370.81"/>
      <point x="254.67" y="1370.08"/>
      <point x="246.23" y="1368.69" type="curve" smooth="yes"/>
    </contour>
  </outline>
</glyph>
<glyph name="W" format="2">
  <advance width="2829"/>
  <unicode hex="0057"/>
  <outline>
    <contour>
      <point x="20.5115" y="1461.2" type="curve"/>
      <point x="93.3115" y="1402.4"/>
      <point x="107.312" y="1322.6"/>
      <point x="107.312" y="1233" type="curve" smooth="yes"/>
      <point x="107.312" y="1189.6"/>
      <point x="89.1115" y="1126.6"/>
      <point x="63.9114" y="1091.6" type="curve"/>
      <point x="103.111" y="1080.4"/>
      <point x="146.511" y="1072"/>
      <point x="187.111" y="1072" type="curve" smooth="yes"/>
      <point x="327.111" y="1072"/>
      <point x="460.111" y="1097.2"/>
      <point x="539.911" y="1223.2" type="curve"/>
      <point x="590.311" y="1226"/>
      <point x="640.711" y="1230.2"/>
      <point x="691.111" y="1230.2" type="curve" smooth="yes"/>
      <point x="766.711" y="1230.2"/>
      <point x="772.311" y="1129.4"/>
      <point x="772.311" y="1074.8" type="curve" smooth="yes"/>
      <point x="772.311" y="929.2"/>
      <point x="759.711" y="785"/>
      <point x="759.711" y="639.4" type="curve" smooth="yes"/>
      <point x="759.711" y="332.8"/>
      <point x="877.311" y="-0.400024"/>
      <point x="1235.71" y="-0.400024" type="curve" smooth="yes"/>
      <point x="1342.11" y="-0.400024"/>
      <point x="1452.71" y="31.8"/>
      <point x="1554.91" y="57" type="curve"/>
      <point x="1612.31" y="16.4" type="line"/>
      <point x="1734.11" y="23.4"/>
      <point x="1854.49" y="40.369"/>
      <point x="1976.31" y="54.2" type="curve" smooth="yes"/>
      <point x="2175.09" y="76.769"/>
      <point x="2350.08" y="138.232"/>
      <point x="2501.31" y="272.6" type="curve" smooth="yes"/>
      <point x="2764.48" y="506.432"/>
      <point x="2807.91" y="773.8"/>
      <point x="2807.91" y="1115.4" type="curve" smooth="yes"/>
      <point x="2807.91" y="1325.4"/>
      <point x="2796.71" y="1374.4"/>
      <point x="2711.31" y="1374.4" type="curve" smooth="yes"/>
      <point x="2607.71" y="1374.4"/>
      <point x="2457.91" y="1347.8"/>
      <point x="2351.51" y="1335.2" type="curve"/>
      <point x="2351.51" y="1298.8" type="line"/>
      <point x="2421.51" y="1275"/>
      <point x="2427.11" y="1202.2"/>
      <point x="2427.11" y="1139.2" type="curve" smooth="yes"/>
      <point x="2427.11" y="675.8"/>
      <point x="2365.51" y="222.2"/>
      <point x="1987.51" y="155" type="curve"/>
      <point x="1987.51" y="1220.4" type="line" smooth="yes"/>
      <point x="1987.51" y="1303"/>
      <point x="1974.91" y="1375.8"/>
      <point x="1876.91" y="1375.8" type="curve" smooth="yes"/>
      <point x="1857.31" y="1375.8"/>
      <point x="1837.84" y="1373.76"/>
      <point x="1818.11" y="1370.2" type="curve" smooth="yes"/>
      <point x="1546.51" y="1321.2" type="line"/>
      <point x="1546.51" y="1280.6" type="line"/>
      <point x="1595.51" y="1266.6"/>
      <point x="1606.71" y="1233"/>
      <point x="1606.71" y="1102.8" type="curve" smooth="yes"/>
      <point x="1606.71" y="177.4" type="line"/>
      <point x="1571.71" y="173.2"/>
      <point x="1535.31" y="171.8"/>
      <point x="1500.31" y="171.8" type="curve" smooth="yes"/>
      <point x="1438.71" y="171.8"/>
      <point x="1372.88" y="178.727"/>
      <point x="1315.51" y="205.4" type="curve" smooth="yes"/>
      <point x="1153.08" y="280.927"/>
      <point x="1144.71" y="647.8"/>
      <point x="1144.71" y="811.6" type="curve" smooth="yes"/>
      <point x="1144.71" y="947.4"/>
      <point x="1158.71" y="1084.6"/>
      <point x="1158.71" y="1220.4" type="curve" smooth="yes"/>
      <point x="1158.71" y="1319.8"/>
      <point x="1143.31" y="1371.6"/>
      <point x="1034.11" y="1371.6" type="curve" smooth="yes"/>
      <point x="1021.51" y="1371.6"/>
      <point x="1007.55" y="1371.19"/>
      <point x="994.911" y="1370.2" type="curve" smooth="yes"/>
      <point x="548.311" y="1335.2" type="line"/>
      <point x="528.711" y="1462.6"/>
      <point x="395.711" y="1513"/>
      <point x="280.911" y="1513" type="curve" smooth="yes"/>
      <point x="199.711" y="1513"/>
      <point x="97.5114" y="1487.8"/>
    </contour>
  </outline>
</glyph>
<glyph name="X" format="2">
  <advance width="1550"/>
  <unicode hex="0058"/>
  <outline>
    <contour>
      <point x="1529.75" y="326.692" type="curve"/>
      <point x="1487.02" y="319.947"/>
      <point x="1431.56" y="357.423"/>
      <point x="1402.33" y="386.655" type="curve" smooth="yes"/>
      <point x="1370.1" y="418.885"/>
      <point x="1342.36" y="472.102"/>
      <point x="1355.85" y="518.573" type="curve"/>
      <point x="1325.87" y="509.579"/>
      <point x="1286.9" y="478.098"/>
      <point x="1265.16" y="456.362" type="curve" smooth="yes"/>
      <point x="1218.69" y="409.891"/>
      <point x="1182.71" y="352.926"/>
      <point x="1163.97" y="290.715" type="curve"/>
      <point x="1113.01" y="262.233"/>
      <point x="1045.55" y="245.743"/>
      <point x="999.826" y="291.464" type="curve" smooth="yes"/>
      <point x="961.6" y="329.691"/>
      <point x="869.408" y="456.362"/>
      <point x="815.441" y="528.317" type="curve"/>
      <point x="1178.96" y="950.304" type="line"/>
      <point x="1144.49" y="969.792"/>
      <point x="1112.26" y="1002.02"/>
      <point x="1084.52" y="1029.75" type="curve" smooth="yes"/>
      <point x="1046.3" y="1067.98"/>
      <point x="994.58" y="1140.69"/>
      <point x="995.329" y="1198.4" type="curve"/>
      <point x="965.348" y="1198.4"/>
      <point x="928.621" y="1172.17"/>
      <point x="909.133" y="1152.68" type="curve" smooth="yes"/>
      <point x="800.451" y="1044"/>
      <point x="818.439" y="871.603"/>
      <point x="922.624" y="767.418" type="curve"/>
      <point x="769.72" y="589.029" type="line"/>
      <point x="399.45" y="1085.22" type="line" smooth="yes"/>
      <point x="380.264" y="1110.93"/>
      <point x="351.48" y="1145.18"/>
      <point x="328.994" y="1167.67" type="curve" smooth="yes"/>
      <point x="278.026" y="1218.64"/>
      <point x="233.054" y="1244.12"/>
      <point x="175.34" y="1186.41" type="curve" smooth="yes"/>
      <point x="158.85" y="1169.92"/>
      <point x="146.917" y="1151.89"/>
      <point x="134.115" y="1133.19" type="curve" smooth="yes"/>
      <point x="20.1864" y="966.794" type="line"/>
      <point x="44.921" y="942.059" type="line"/>
      <point x="94.3902" y="961.547"/>
      <point x="138.613" y="932.315"/>
      <point x="172.342" y="898.586" type="curve" smooth="yes"/>
      <point x="202.323" y="868.605"/>
      <point x="235.919" y="821.285"/>
      <point x="261.536" y="786.906" type="curve" smooth="yes"/>
      <point x="577.09" y="363.42" type="line"/>
      <point x="436.177" y="201.52" type="line"/>
      <point x="430.181" y="207.517"/>
      <point x="424.934" y="214.262"/>
      <point x="418.938" y="220.259" type="curve" smooth="yes"/>
      <point x="325.246" y="313.95"/>
      <point x="227.058" y="317.698"/>
      <point x="133.366" y="224.006" type="curve" smooth="yes"/>
      <point x="101.136" y="191.776"/>
      <point x="74.1528" y="137.81"/>
      <point x="72.6537" y="91.339" type="curve"/>
      <point x="116.127" y="103.332"/>
      <point x="191.83" y="39.6212"/>
      <point x="218.063" y="13.3876" type="curve" smooth="yes"/>
      <point x="243.547" y="-12.0966"/>
      <point x="275.777" y="-48.8237"/>
      <point x="292.267" y="-81.8031" type="curve"/>
      <point x="623.561" y="301.958" type="line"/>
      <point x="677.527" y="230.003"/>
      <point x="790.707" y="73.3502"/>
      <point x="824.436" y="39.6212" type="curve" smooth="yes"/>
      <point x="874.654" y="-10.5975"/>
      <point x="917.378" y="-14.3452"/>
      <point x="969.096" y="37.3726" type="curve" smooth="yes"/>
      <point x="1004.32" y="72.6007"/>
      <point x="1095.02" y="175.287"/>
      <point x="1156.48" y="245.743" type="curve"/>
      <point x="1151.98" y="205.268"/>
      <point x="1156.48" y="158.797"/>
      <point x="1186.46" y="128.816" type="curve" smooth="yes"/>
      <point x="1269.66" y="45.6175"/>
      <point x="1364.1" y="125.068"/>
      <point x="1427.81" y="188.778" type="curve" smooth="yes"/>
      <point x="1461.54" y="222.507"/>
      <point x="1511.01" y="282.47"/>
    </contour>
  </outline>
</glyph>
<glyph name="Y" format="2">
  <advance width="992"/>
  <unicode hex="0059"/>
  <outline>
    <contour>
      <point x="971.396" y="1242.07" type="curve" smooth="yes"/>
      <point x="971.396" y="1307.5"/>
      <point x="949.944" y="1374"/>
      <point x="872.717" y="1374" type="curve" smooth="yes"/>
      <point x="815.869" y="1374"/>
      <point x="676.431" y="1333.24"/>
      <point x="608.857" y="1315.01" type="curve"/>
      <point x="608.857" y="1290.34" type="line"/>
      <point x="638.89" y="1266.74"/>
      <point x="650.689" y="1237.78"/>
      <point x="650.689" y="1200.24" type="curve" smooth="yes"/>
      <point x="650.689" y="1125.16"/>
      <point x="563.808" y="949.25"/>
      <point x="529.485" y="883.822" type="curve"/>
      <point x="349.288" y="841.99" type="line"/>
      <point x="349.288" y="965.339"/>
      <point x="399.7" y="1065.09"/>
      <point x="399.7" y="1183.08" type="curve" smooth="yes"/>
      <point x="399.7" y="1244.22"/>
      <point x="372.885" y="1296.77"/>
      <point x="305.312" y="1296.77" type="curve" smooth="yes"/>
      <point x="258.117" y="1296.77"/>
      <point x="77.9204" y="1244.22"/>
      <point x="20" y="1227.05" type="curve"/>
      <point x="20" y="1189.51" type="line"/>
      <point x="76.8478" y="1175.57"/>
      <point x="92.9368" y="1125.16"/>
      <point x="92.9368" y="1072.6" type="curve" smooth="yes"/>
      <point x="92.9368" y="1000.74"/>
      <point x="70.4122" y="928.871"/>
      <point x="70.4122" y="857.007" type="curve" smooth="yes"/>
      <point x="70.4122" y="784.07"/>
      <point x="105.808" y="725.077"/>
      <point x="185.18" y="725.077" type="curve" smooth="yes"/>
      <point x="207.705" y="725.077"/>
      <point x="231.308" y="731.49"/>
      <point x="252.754" y="736.876" type="curve" smooth="yes"/>
      <point x="487.654" y="795.869" type="line"/>
      <point x="179.817" y="171.615" type="line" smooth="yes"/>
      <point x="171.965" y="155.692"/>
      <point x="154.075" y="107.259"/>
      <point x="154.075" y="90.0978" type="curve" smooth="yes"/>
      <point x="154.075" y="17.161"/>
      <point x="185.18" y="0"/>
      <point x="252.754" y="0" type="curve" smooth="yes"/>
      <point x="275.279" y="0"/>
      <point x="297.733" y="3.75844"/>
      <point x="320.328" y="6.43564" type="curve" smooth="yes"/>
      <point x="546.647" y="33.2506" type="line"/>
      <point x="546.647" y="67.5738" type="line"/>
      <point x="519.832" y="83.6628"/>
      <point x="502.67" y="115.841"/>
      <point x="502.67" y="146.946" type="curve" smooth="yes"/>
      <point x="502.67" y="167.326"/>
      <point x="509.775" y="203.989"/>
      <point x="518.759" y="222.028" type="curve" smooth="yes"/>
      <point x="931.71" y="1051.15" type="line" smooth="yes"/>
      <point x="958.87" y="1105.68"/>
      <point x="971.396" y="1180.93"/>
    </contour>
  </outline>
</glyph>
<glyph name="Z" format="2">
  <advance width="1731"/>
  <unicode hex="005A"/>
  <outline>
    <contour>
      <point x="1650.66" y="-53.069" type="curve"/>
      <point x="1589.21" y="-14.97"/>
      <point x="1576.92" y="52.625"/>
      <point x="1576.92" y="120.22" type="curve" smooth="yes"/>
      <point x="1576.92" y="165.693"/>
      <point x="1589.21" y="259.097"/>
      <point x="1624.85" y="289.822" type="curve"/>
      <point x="1594.13" y="295.967"/>
      <point x="1560.94" y="297.196"/>
      <point x="1528.99" y="297.196" type="curve" smooth="yes"/>
      <point x="1419.61" y="297.196"/>
      <point x="1221.74" y="261.555"/>
      <point x="1175.04" y="146.029" type="curve"/>
      <point x="1117.28" y="138.655"/>
      <point x="1034.93" y="130.052"/>
      <point x="1000.52" y="130.052" type="curve" smooth="yes"/>
      <point x="939.071" y="130.052"/>
      <point x="913.262" y="149.716"/>
      <point x="913.262" y="211.166" type="curve" smooth="yes"/>
      <point x="913.262" y="243.12"/>
      <point x="918.821" y="277.65"/>
      <point x="925.552" y="309.486" type="curve" smooth="yes"/>
      <point x="1048.45" y="890.803" type="line" smooth="yes"/>
      <point x="1060.92" y="949.758"/>
      <point x="1074.26" y="1018.62"/>
      <point x="1074.26" y="1073.92" type="curve" smooth="yes"/>
      <point x="1074.26" y="1253.36"/>
      <point x="967.338" y="1373.8"/>
      <point x="784.217" y="1373.8" type="curve" smooth="yes"/>
      <point x="545.791" y="1373.8"/>
      <point x="339.319" y="1253.36"/>
      <point x="107.038" y="1222.63" type="curve"/>
      <point x="121.786" y="1185.76"/>
      <point x="137.763" y="1130.46"/>
      <point x="137.763" y="1092.36" type="curve" smooth="yes"/>
      <point x="137.763" y="1027.22"/>
      <point x="119.328" y="939.963"/>
      <point x="80" y="885.887" type="curve"/>
      <point x="103.351" y="874.826"/>
      <point x="140.221" y="871.139"/>
      <point x="164.801" y="871.139" type="curve" smooth="yes"/>
      <point x="401.998" y="871.139"/>
      <point x="472.051" y="1008.79"/>
      <point x="472.051" y="1222.63" type="curve"/>
      <point x="511.379" y="1233.69"/>
      <point x="555.623" y="1243.53"/>
      <point x="596.18" y="1243.53" type="curve" smooth="yes"/>
      <point x="695.729" y="1243.53"/>
      <point x="736.286" y="1135.37"/>
      <point x="736.286" y="1051.8" type="curve" smooth="yes"/>
      <point x="736.286" y="1014.93"/>
      <point x="731.812" y="974.281"/>
      <point x="723.996" y="938.734" type="curve" smooth="yes"/>
      <point x="558.081" y="184.128" type="line" smooth="yes"/>
      <point x="552.384" y="158.216"/>
      <point x="550.707" y="127.594"/>
      <point x="550.707" y="100.556" type="curve" smooth="yes"/>
      <point x="550.707" y="20.671"/>
      <point x="578.974" y="-0.22201"/>
      <point x="656.401" y="-0.22201" type="curve" smooth="yes"/>
      <point x="685.897" y="-0.22201"/>
      <point x="955.048" y="34.19"/>
      <point x="1165.21" y="57.541" type="curve"/>
      <point x="1176.27" y="-66.588"/>
      <point x="1279.5" y="-101"/>
      <point x="1388.89" y="-101" type="curve" smooth="yes"/>
      <point x="1472.46" y="-101"/>
      <point x="1579.38" y="-99.771"/>
    </contour>
  </outline>
</glyph>
<glyph name="a" format="2">
  <advance width="913"/>
  <unicode hex="0061"/>
  <outline>
    <contour>
      <point x="878.156" y="30.479" type="line"/>
      <point x="876.718" y="49.173" type="line"/>
      <point x="849.396" y="53.487"/>
      <point x="839.767" y="97.4245"/>
      <point x="803.38" y="298.666" type="curve" smooth="yes"/>
      <point x="769.305" y="487.123"/>
      <point x="729.323" y="553.911"/>
      <point x="668.208" y="553.911" type="curve" smooth="yes"/>
      <point x="644.481" y="553.911"/>
      <point x="630.119" y="550.251"/>
      <point x="606.374" y="543.845" type="curve" smooth="yes"/>
      <point x="451.789" y="502.143" type="line"/>
      <point x="502.838" y="594.894"/>
      <point x="564.672" y="682.612"/>
      <point x="629.382" y="766.735" type="curve"/>
      <point x="423.029" y="733.661" type="line"/>
      <point x="413.682" y="965.898" type="line" smooth="yes"/>
      <point x="412.496" y="995.362"/>
      <point x="394.269" y="1011.91"/>
      <point x="364.79" y="1011.91" type="curve" smooth="yes"/>
      <point x="355.443" y="1011.91"/>
      <point x="346.111" y="1009.69"/>
      <point x="336.749" y="1007.6" type="curve" smooth="yes"/>
      <point x="162.751" y="968.774" type="line"/>
      <point x="162.751" y="950.08" type="line"/>
      <point x="192.23" y="942.171"/>
      <point x="203.054" y="916.29"/>
      <point x="205.172" y="888.246" type="curve" smooth="yes"/>
      <point x="223.147" y="650.257" type="line"/>
      <point x="373.418" y="675.422" type="line"/>
      <point x="264.13" y="544.564"/>
      <point x="157.329" y="372.601"/>
      <point x="97.3219" y="210.229" type="curve" smooth="yes"/>
      <point x="83.9904" y="174.156"/>
      <point x="70" y="126.825"/>
      <point x="70" y="88" type="curve" smooth="yes"/>
      <point x="70" y="30.48"/>
      <point x="95.165" y="1"/>
      <point x="153.404" y="1" type="curve" smooth="yes"/>
      <point x="164.189" y="1"/>
      <point x="173.535" y="1.7257"/>
      <point x="183.602" y="3.157" type="curve" smooth="yes"/>
      <point x="335.311" y="24.727" type="line"/>
      <point x="340.344" y="44.14" type="line"/>
      <point x="305.113" y="49.173"/>
      <point x="300.799" y="74.338"/>
      <point x="300.799" y="104.536" type="curve" smooth="yes"/>
      <point x="300.799" y="162.775"/>
      <point x="392.112" y="388.541"/>
      <point x="423.029" y="443.904" type="curve"/>
      <point x="542.383" y="443.904"/>
      <point x="577.095" y="425.962"/>
      <point x="596.308" y="308.013" type="curve" smooth="yes"/>
      <point x="602.979" y="267.062"/>
      <point x="607.093" y="226.047"/>
      <point x="612.845" y="185.064" type="curve" smooth="yes"/>
      <point x="630.101" y="62.115"/>
      <point x="651.671" y="1"/>
      <point x="714.224" y="1" type="curve" smooth="yes"/>
      <point x="722.133" y="1"/>
      <point x="729.313" y="1.7682"/>
      <point x="736.513" y="3.157" type="curve" smooth="yes"/>
    </contour>
  </outline>
</glyph>
<glyph name="b" format="2">
  <advance width="832"/>
  <unicode hex="0062"/>
  <outline>
    <contour>
      <point x="492.885" y="166.022" type="curve" smooth="yes"/>
      <point x="492.885" y="123.051"/>
      <point x="470.423" y="66.4087"/>
      <point x="417.686" y="66.4087" type="curve" smooth="yes"/>
      <point x="377.646" y="66.4087"/>
      <point x="338.582" y="103.519"/>
      <point x="310.26" y="259.775" type="curve"/>
      <point x="327.839" y="263.682"/>
      <point x="353.231" y="267.588"/>
      <point x="370.81" y="267.588" type="curve" smooth="yes"/>
      <point x="454.797" y="267.588"/>
      <point x="492.885" y="243.173"/>
    </contour>
    <contour>
      <point x="509.487" y="851.594" type="curve" smooth="yes"/>
      <point x="509.487" y="740.262"/>
      <point x="424.523" y="580.1"/>
      <point x="301.471" y="568.381" type="curve"/>
      <point x="301.471" y="789.092"/>
      <point x="335.652" y="933.629"/>
      <point x="433.312" y="933.629" type="curve" smooth="yes"/>
      <point x="492.885" y="933.629"/>
      <point x="509.487" y="908.237"/>
    </contour>
    <contour>
      <point x="761.449" y="805.694" type="curve" smooth="yes"/>
      <point x="761.449" y="974.646"/>
      <point x="659.883" y="1011.76"/>
      <point x="511.44" y="1011.76" type="curve" smooth="yes"/>
      <point x="191.115" y="1011.76"/>
      <point x="29" y="896.518"/>
      <point x="29" y="561.544" type="curve" smooth="yes"/>
      <point x="29" y="319.348"/>
      <point x="92.4789" y="0"/>
      <point x="395.225" y="0" type="curve" smooth="yes"/>
      <point x="525.112" y="0"/>
      <point x="733.128" y="74.2215"/>
      <point x="733.128" y="230.477" type="curve" smooth="yes"/>
      <point x="733.128" y="317.395"/>
      <point x="668.672" y="360.365"/>
      <point x="587.615" y="360.365" type="curve" smooth="yes"/>
      <point x="526.089" y="360.365"/>
      <point x="399.131" y="341.81"/>
      <point x="309.284" y="326.184" type="curve"/>
      <point x="303.424" y="385.757"/>
      <point x="301.471" y="446.306"/>
      <point x="301.471" y="505.878" type="curve"/>
      <point x="338.582" y="499.042"/>
      <point x="377.646" y="494.159"/>
      <point x="415.733" y="494.159" type="curve" smooth="yes"/>
      <point x="595.427" y="494.159"/>
      <point x="761.449" y="615.257"/>
    </contour>
  </outline>
</glyph>
<glyph name="c" format="2">
  <advance width="1015"/>
  <unicode hex="0063"/>
  <outline>
    <contour>
      <point x="945.928" y="788.763" type="curve"/>
      <point x="896.4" y="863.881"/>
      <point x="884.017" y="923.316"/>
      <point x="878.239" y="1012.47" type="curve"/>
      <point x="704.063" y="1015.77"/>
      <point x="452.426" y="999.878"/>
      <point x="244.27" y="865.532" type="curve" smooth="yes"/>
      <point x="128.837" y="791.031"/>
      <point x="100.36" y="655.061"/>
      <point x="88.2548" y="522.958" type="curve" smooth="yes"/>
      <point x="81.3737" y="447.864"/>
      <point x="80" y="371.895"/>
      <point x="80" y="296.777" type="curve" smooth="yes"/>
      <point x="80" y="167.176"/>
      <point x="85.7784" y="-0.396202"/>
      <point x="252.525" y="-0.396202" type="curve" smooth="yes"/>
      <point x="344.979" y="-0.396202"/>
      <point x="510.075" y="44.1797"/>
      <point x="602.529" y="72.246" type="curve"/>
      <point x="627.293" y="12.8115"/>
      <point x="691.681" y="-7"/>
      <point x="751.115" y="-7" type="curve" smooth="yes"/>
      <point x="794.866" y="-7"/>
      <point x="866.682" y="7.03316"/>
      <point x="894.749" y="45.0052" type="curve"/>
      <point x="858.428" y="71.4206"/>
      <point x="844.395" y="135.808"/>
      <point x="844.395" y="177.082" type="curve" smooth="yes"/>
      <point x="844.395" y="182.86"/>
      <point x="845.22" y="242.295"/>
      <point x="857.602" y="249.724" type="curve"/>
      <point x="843.569" y="255.503"/>
      <point x="821.281" y="257.979"/>
      <point x="807.248" y="257.979" type="curve" smooth="yes"/>
      <point x="723.874" y="257.979"/>
      <point x="605.831" y="245.597"/>
      <point x="592.623" y="143.237" type="curve"/>
      <point x="555.477" y="114.346"/>
      <point x="491.089" y="101.138"/>
      <point x="445.688" y="101.138" type="curve" smooth="yes"/>
      <point x="420.923" y="101.138"/>
      <point x="392.795" y="101.02"/>
      <point x="370.569" y="112.695" type="curve" smooth="yes"/>
      <point x="311.073" y="143.945"/>
      <point x="315.262" y="275.314"/>
      <point x="315.262" y="330.621" type="curve" smooth="yes"/>
      <point x="315.262" y="425.551"/>
      <point x="318.428" y="520.503"/>
      <point x="333.422" y="614.586" type="curve" smooth="yes"/>
      <point x="360.527" y="784.657"/>
      <point x="421.749" y="925.792"/>
      <point x="615.737" y="925.792" type="curve"/>
      <point x="614.911" y="919.189"/>
      <point x="614.911" y="912.585"/>
      <point x="614.911" y="905.981" type="curve" smooth="yes"/>
      <point x="614.911" y="778.857"/>
      <point x="709.841" y="759.045"/>
      <point x="813.852" y="759.045" type="curve" smooth="yes"/>
      <point x="853.475" y="759.045"/>
      <point x="910.433" y="768.126"/>
    </contour>
  </outline>
</glyph>
<glyph name="d" format="2">
  <advance width="1364"/>
  <unicode hex="0064"/>
  <outline>
    <contour>
      <point x="1328.22" y="519.746" type="curve" smooth="yes"/>
      <point x="1328.22" y="376.114"/>
      <point x="1251.19" y="248.812"/>
      <point x="1154.24" y="146.504" type="curve" smooth="yes"/>
      <point x="1049.9" y="36.397"/>
      <point x="878.101" y="-13.313"/>
      <point x="565.548" y="-13.313" type="curve" smooth="yes"/>
      <point x="424.95" y="-13.313"/>
      <point x="284.352" y="-0.163518"/>
      <point x="143.754" y="-0.163518" type="curve"/>
      <point x="143.754" y="55.4689"/>
      <point x="150.834" y="253.722"/>
      <point x="98.2362" y="287.102" type="curve"/>
      <point x="121.501" y="306.32"/>
      <point x="159.938" y="316.435"/>
      <point x="189.271" y="316.435" type="curve" smooth="yes"/>
      <point x="311.662" y="316.435"/>
      <point x="456.307" y="223.378"/>
      <point x="448.215" y="69.6298" type="curve"/>
      <point x="482.605" y="55.4689"/>
      <point x="535.203" y="55.4689"/>
      <point x="572.629" y="55.4689" type="curve" smooth="yes"/>
      <point x="796.17" y="55.4689"/>
      <point x="966.832" y="144.592"/>
      <point x="1019.71" y="374.091" type="curve" smooth="yes"/>
      <point x="1027.13" y="406.275"/>
      <point x="1031.22" y="423.212"/>
      <point x="1033.87" y="452.988" type="curve" smooth="yes"/>
      <point x="1037.22" y="490.482"/>
      <point x="1039.94" y="527.838"/>
      <point x="1039.94" y="565.264" type="curve" smooth="yes"/>
      <point x="1039.94" y="648.207"/>
      <point x="987.297" y="694.407"/>
      <point x="907.435" y="691.701" type="curve" smooth="yes"/>
      <point x="753.724" y="686.494" type="line"/>
      <point x="734.506" y="601.528"/>
      <point x="706.87" y="451.84"/>
      <point x="706.87" y="409.357" type="curve" smooth="yes"/>
      <point x="706.87" y="332.484"/>
      <point x="720.023" y="286.031"/>
      <point x="800.943" y="286.031" type="curve"/>
      <point x="800.352" y="267.69"/>
      <point x="804.241" y="248.029"/>
      <point x="810.365" y="230.454" type="curve" smooth="yes"/>
      <point x="812.417" y="224.567"/>
      <point x="816.179" y="217.638"/>
      <point x="821.032" y="211.326" type="curve"/>
      <point x="785.09" y="206.999"/>
      <point x="749.194" y="204.023"/>
      <point x="712.939" y="204.023" type="curve" smooth="yes"/>
      <point x="539.973" y="204.023"/>
      <point x="423.651" y="225.265"/>
      <point x="423.651" y="423.518" type="curve" smooth="yes"/>
      <point x="423.651" y="456.898"/>
      <point x="446.997" y="601.528"/>
      <point x="464.436" y="675.367" type="curve"/>
      <point x="299.562" y="669.298"/>
      <point x="274.821" y="667.735"/>
      <point x="109.947" y="659.643" type="curve"/>
      <point x="126.131" y="684.931"/>
      <point x="129.166" y="760.793"/>
      <point x="129.166" y="788.104" type="curve" smooth="yes"/>
      <point x="129.166" y="826.541"/>
      <point x="119.051" y="925.667"/>
      <point x="70.4986" y="940.84" type="curve"/>
      <point x="81.6248" y="973.208"/>
      <point x="180.752" y="978.265"/>
      <point x="205.028" y="978.265" type="curve" smooth="yes"/>
      <point x="353.718" y="978.265"/>
      <point x="416.431" y="887.23"/>
      <point x="416.431" y="746.632" type="curve"/>
      <point x="434.953" y="748.66"/>
      <point x="455.912" y="751.025"/>
      <point x="474.551" y="752.241" type="curve"/>
      <point x="505.907" y="977.805" type="line" smooth="yes"/>
      <point x="510.26" y="1009.12"/>
      <point x="518.045" y="1063.78"/>
      <point x="518.045" y="1096.15" type="curve" smooth="yes"/>
      <point x="518.045" y="1113.35"/>
      <point x="515.011" y="1152.79"/>
      <point x="492.758" y="1155.83" type="curve"/>
      <point x="492.758" y="1183.14" type="line"/>
      <point x="565.586" y="1196.29"/>
      <point x="678.873" y="1221.58"/>
      <point x="734.506" y="1221.58" type="curve" smooth="yes"/>
      <point x="784.069" y="1221.58"/>
      <point x="814.414" y="1205.39"/>
      <point x="814.414" y="1151.78" type="curve" smooth="yes"/>
      <point x="814.414" y="1120.43"/>
      <point x="808.527" y="1088.03"/>
      <point x="804.299" y="1056.7" type="curve" smooth="yes"/>
      <point x="764.851" y="764.379" type="line"/>
      <point x="818.46" y="765.391"/>
      <point x="984.309" y="773.632"/>
      <point x="1037.92" y="773.632" type="curve" smooth="yes"/>
      <point x="1219.99" y="773.632"/>
      <point x="1328.22" y="714.966"/>
    </contour>
  </outline>
</glyph>
<glyph name="e" format="2">
  <advance width="1187"/>
  <unicode hex="0065"/>
  <outline>
    <contour>
      <point x="1045.13" y="79.542" type="curve" smooth="yes"/>
      <point x="1045.13" y="90.5895"/>
      <point x="1044.4" y="102.375"/>
      <point x="1042.92" y="113.421" type="curve" smooth="yes"/>
      <point x="1023.03" y="261.457" type="line"/>
      <point x="999.463" y="261.457" type="line"/>
      <point x="994.307" y="239.362"/>
      <point x="965.584" y="231.261"/>
      <point x="914.765" y="231.261" type="curve" smooth="yes"/>
      <point x="773.357" y="231.261"/>
      <point x="608.381" y="276.924"/>
      <point x="601.016" y="444.846" type="curve"/>
      <point x="894.88" y="399.919" type="line" smooth="yes"/>
      <point x="921.341" y="395.874"/>
      <point x="967.057" y="391.081"/>
      <point x="994.307" y="391.081" type="curve" smooth="yes"/>
      <point x="1039.97" y="391.081"/>
      <point x="1045.86" y="433.798"/>
      <point x="1045.86" y="470.623" type="curve" smooth="yes"/>
      <point x="1045.86" y="500.083"/>
      <point x="1038.5" y="585.517"/>
      <point x="1028.92" y="663.586" type="curve"/>
      <point x="1005.35" y="663.586" type="line"/>
      <point x="1002.41" y="628.234"/>
      <point x="972.949" y="608.349"/>
      <point x="939.07" y="608.349" type="curve" smooth="yes"/>
      <point x="919.184" y="608.349"/>
      <point x="898.589" y="610.01"/>
      <point x="878.677" y="612.768" type="curve" smooth="yes"/>
      <point x="564.928" y="656.221" type="line"/>
      <point x="564.928" y="737.973"/>
      <point x="598.053" y="797.927"/>
      <point x="685.714" y="802.785" type="curve" smooth="yes"/>
      <point x="978.104" y="818.988" type="line" smooth="yes"/>
      <point x="1024.49" y="821.558"/>
      <point x="1047.34" y="844.029"/>
      <point x="1047.34" y="890.428" type="curve" smooth="yes"/>
      <point x="1047.34" y="907.368"/>
      <point x="1044.64" y="923.618"/>
      <point x="1041.44" y="939.774" type="curve" smooth="yes"/>
      <point x="1002.41" y="1137.16" type="line"/>
      <point x="1082.69" y="1137.16"/>
      <point x="1116.57" y="1187.24"/>
      <point x="1116.57" y="1262.36" type="curve" smooth="yes"/>
      <point x="1116.57" y="1317.6"/>
      <point x="1097.42" y="1373.57"/>
      <point x="1070.17" y="1420.71" type="curve"/>
      <point x="1038.5" y="1387.57"/>
      <point x="997.253" y="1364"/>
      <point x="950.854" y="1364" type="curve" smooth="yes"/>
      <point x="916.975" y="1364"/>
      <point x="882.359" y="1371.36"/>
      <point x="851.426" y="1386.09" type="curve"/>
      <point x="847.744" y="1366.21"/>
      <point x="847.007" y="1345.59"/>
      <point x="847.007" y="1325.7" type="curve" smooth="yes"/>
      <point x="847.007" y="1252.05"/>
      <point x="877.204" y="1169.56"/>
      <point x="949.381" y="1138.63" type="curve"/>
      <point x="954.536" y="1115.8"/>
      <point x="959.692" y="1084.13"/>
      <point x="959.692" y="1067.92" type="curve" smooth="yes"/>
      <point x="959.692" y="1038.46"/>
      <point x="919.901" y="1030.64"/>
      <point x="897.826" y="1028.89" type="curve" smooth="yes"/>
      <point x="647.416" y="1009.01" type="line" smooth="yes"/>
      <point x="559.798" y="1002.05"/>
      <point x="483.177" y="967.025"/>
      <point x="483.177" y="869.07" type="curve" smooth="yes"/>
      <point x="483.177" y="835.928"/>
      <point x="494.224" y="757.122"/>
      <point x="513.373" y="663.587" type="curve"/>
      <point x="352.079" y="687.155" type="line" smooth="yes"/>
      <point x="316.729" y="692.32"/>
      <point x="257.807" y="700.412"/>
      <point x="240.131" y="700.412" type="curve" smooth="yes"/>
      <point x="210.671" y="700.412"/>
      <point x="202.57" y="679.79"/>
      <point x="202.57" y="653.276" type="curve" smooth="yes"/>
      <point x="202.57" y="626.025"/>
      <point x="215.091" y="542.801"/>
      <point x="222.456" y="496.401" type="curve"/>
      <point x="208.462" y="500.82"/>
      <point x="194.469" y="502.293"/>
      <point x="179.739" y="502.293" type="curve" smooth="yes"/>
      <point x="100.933" y="502.293"/>
      <point x="70" y="401.393"/>
      <point x="70" y="338.054" type="curve" smooth="yes"/>
      <point x="70" y="293.864"/>
      <point x="73.6825" y="250.41"/>
      <point x="88.4125" y="208.43" type="curve"/>
      <point x="117.136" y="230.525"/>
      <point x="158.38" y="251.883"/>
      <point x="195.205" y="251.883" type="curve" smooth="yes"/>
      <point x="233.503" y="251.883"/>
      <point x="267.382" y="234.944"/>
      <point x="297.579" y="212.849" type="curve"/>
      <point x="307.89" y="231.998"/>
      <point x="311.572" y="266.613"/>
      <point x="311.572" y="287.972" type="curve" smooth="yes"/>
      <point x="311.572" y="327.006"/>
      <point x="307.89" y="396.237"/>
      <point x="288.004" y="431.589" type="curve"/>
      <point x="285.058" y="444.11"/>
      <point x="281.376" y="463.259"/>
      <point x="281.376" y="475.043" type="curve" smooth="yes"/>
      <point x="281.376" y="487.563"/>
      <point x="287.268" y="487.563"/>
      <point x="297.579" y="487.563" type="curve" smooth="yes"/>
      <point x="321.883" y="487.563"/>
      <point x="465.5" y="466.205"/>
      <point x="542.096" y="454.421" type="curve"/>
      <point x="542.096" y="183.389"/>
      <point x="676.139" y="0"/>
      <point x="958.219" y="0" type="curve" smooth="yes"/>
      <point x="1014.93" y="0"/>
      <point x="1045.13" y="21.3585"/>
    </contour>
  </outline>
</glyph>
<glyph name="f" format="2">
  <advance width="703"/>
  <unicode hex="0066"/>
  <outline>
    <contour>
      <point x="831.313" y="607.423" type="curve"/>
      <point x="811.531" y="635.997"/>
      <point x="758.046" y="646.255"/>
      <point x="726.542" y="646.255" type="curve" smooth="yes"/>
      <point x="647.414" y="646.255"/>
      <point x="571.217" y="598.631"/>
      <point x="560.959" y="515.84" type="curve"/>
      <point x="424.683" y="527.563" type="line"/>
      <point x="283.279" y="729.046"/>
      <point x="268.626" y="789.124"/>
      <point x="268.626" y="825.025" type="curve" smooth="yes"/>
      <point x="268.626" y="854.332"/>
      <point x="286.21" y="922.47"/>
      <point x="324.308" y="922.47" type="curve" smooth="yes"/>
      <point x="375.595" y="922.47"/>
      <point x="439.337" y="910.014"/>
      <point x="490.623" y="902.688" type="curve"/>
      <point x="493.554" y="874.846"/>
      <point x="497.95" y="852.134"/>
      <point x="519.93" y="833.817" type="curve" smooth="yes"/>
      <point x="550.702" y="808.174"/>
      <point x="625.434" y="792.788"/>
      <point x="709.691" y="797.916" type="curve"/>
      <point x="708.225" y="818.431"/>
      <point x="703.097" y="837.48"/>
      <point x="703.097" y="857.995" type="curve" smooth="yes"/>
      <point x="703.097" y="890.965"/>
      <point x="711.889" y="943.717"/>
      <point x="733.869" y="970.093" type="curve"/>
      <point x="712.621" y="991.34"/>
      <point x="643.751" y="995.736"/>
      <point x="616.642" y="995.736" type="curve" smooth="yes"/>
      <point x="589.533" y="995.736"/>
      <point x="522.861" y="988.41"/>
      <point x="513.336" y="953.974" type="curve"/>
      <point x="451.792" y="962.034"/>
      <point x="390.248" y="969.36"/>
      <point x="328.704" y="976.687" type="curve"/>
      <point x="292.071" y="980.35"/>
      <point x="248.844" y="986.944"/>
      <point x="215.874" y="986.944" type="curve" smooth="yes"/>
      <point x="116.231" y="986.944"/>
      <point x="59.8158" y="945.182"/>
      <point x="59.8158" y="841.144" type="curve" smooth="yes"/>
      <point x="59.8158" y="770.075"/>
      <point x="115.384" y="674.735"/>
      <point x="188.765" y="584.711" type="curve" smooth="yes"/>
      <point x="257.521" y="500.36"/>
      <point x="378.073" y="221.538"/>
      <point x="361.606" y="103.306" type="curve" smooth="yes"/>
      <point x="358.271" y="79.3591"/>
      <point x="351.349" y="40.2967"/>
      <point x="320.577" y="38.8314" type="curve"/>
      <point x="320.577" y="18.3167" type="line"/>
      <point x="349.151" y="9.52472"/>
      <point x="426.081" y="0"/>
      <point x="496.417" y="0" type="curve" smooth="yes"/>
      <point x="545.505" y="0"/>
      <point x="563.23" y="23.5037"/>
      <point x="560.891" y="70.3359" type="curve" smooth="yes"/>
      <point x="552.702" y="234.283"/>
      <point x="488.425" y="421.326"/>
      <point x="462.049" y="466.019" type="curve"/>
      <point x="748.522" y="438.91" type="line"/>
      <point x="750.72" y="501.187"/>
      <point x="760.977" y="586.909"/>
    </contour>
  </outline>
</glyph>
<glyph name="g" format="2">
  <advance width="1752"/>
  <unicode hex="0067"/>
  <outline>
    <contour>
      <point x="1036.47" y="243.573" type="curve"/>
      <point x="1040.65" y="277.786"/>
      <point x="1046.49" y="312.834"/>
      <point x="1046.49" y="347.883" type="curve" smooth="yes"/>
      <point x="1046.49" y="411.303"/>
      <point x="1018.79" y="445.942"/>
      <point x="952.192" y="450.524" type="curve" smooth="yes"/>
      <point x="916.435" y="452.983"/>
      <point x="904.499" y="456.811"/>
      <point x="854.755" y="457.691" type="curve" smooth="yes"/>
      <point x="793" y="458.783"/>
      <point x="711.827" y="452.197"/>
      <point x="656.751" y="440.51" type="curve"/>
      <point x="653.414" y="409.634"/>
      <point x="651.745" y="378.758"/>
      <point x="651.745" y="347.883" type="curve" smooth="yes"/>
      <point x="651.745" y="279.455"/>
      <point x="695.137" y="243.573"/>
      <point x="761.061" y="243.573" type="curve" smooth="yes"/>
      <point x="803.803" y="243.573"/>
      <point x="847.841" y="243.573"/>
      <point x="890.582" y="243.573" type="curve" smooth="yes"/>
      <point x="944.667" y="243.573"/>
      <point x="1000.39" y="243.573"/>
    </contour>
    <contour>
      <point x="1716.58" y="37.4553" type="curve"/>
      <point x="1707.4" y="10.752"/>
      <point x="1625.62" y="6.57959"/>
      <point x="1605.59" y="6.57959" type="curve" smooth="yes"/>
      <point x="1482.92" y="6.57959"/>
      <point x="1431.18" y="81.6828"/>
      <point x="1431.18" y="197.676" type="curve"/>
      <point x="1376.11" y="195.172"/>
      <point x="1321.87" y="192.669"/>
      <point x="1266.79" y="189.331" type="curve"/>
      <point x="1240.92" y="3.24175" type="line" smooth="yes"/>
      <point x="1237.33" y="-22.5932"/>
      <point x="1230.91" y="-67.689"/>
      <point x="1230.91" y="-94.3924" type="curve" smooth="yes"/>
      <point x="1230.91" y="-108.579"/>
      <point x="1233.41" y="-141.123"/>
      <point x="1251.77" y="-143.627" type="curve"/>
      <point x="1251.77" y="-166.158" type="line"/>
      <point x="1191.69" y="-177.006"/>
      <point x="1098.23" y="-197.868"/>
      <point x="1052.33" y="-197.868" type="curve" smooth="yes"/>
      <point x="1011.44" y="-197.868"/>
      <point x="986.406" y="-184.516"/>
      <point x="986.406" y="-140.289" type="curve" smooth="yes"/>
      <point x="986.406" y="-114.42"/>
      <point x="991.262" y="-87.6967"/>
      <point x="994.75" y="-61.8476" type="curve" smooth="yes"/>
      <point x="1027.3" y="179.317" type="line"/>
      <point x="1001.07" y="178.483"/>
      <point x="697.64" y="175.98"/>
      <point x="653.413" y="175.98" type="curve" smooth="yes"/>
      <point x="503.206" y="175.98"/>
      <point x="421.237" y="224.546"/>
      <point x="413.917" y="385.434" type="curve" smooth="yes"/>
      <point x="410.284" y="465.286"/>
      <point x="410.736" y="526.413"/>
      <point x="413.917" y="572.634" type="curve" smooth="yes"/>
      <point x="422.052" y="690.851"/>
      <point x="477.465" y="796.154"/>
      <point x="557.447" y="880.557" type="curve" smooth="yes"/>
      <point x="643.527" y="971.395"/>
      <point x="785.261" y="1012.41"/>
      <point x="1043.11" y="1012.41" type="curve" smooth="yes"/>
      <point x="1159.11" y="1012.41"/>
      <point x="1275.1" y="1001.56"/>
      <point x="1391.09" y="1001.56" type="curve"/>
      <point x="1391.09" y="955.661"/>
      <point x="1385.25" y="792.102"/>
      <point x="1428.64" y="764.565" type="curve"/>
      <point x="1409.45" y="748.709"/>
      <point x="1377.74" y="740.365"/>
      <point x="1353.54" y="740.365" type="curve" smooth="yes"/>
      <point x="1252.57" y="740.365"/>
      <point x="1133.24" y="817.137"/>
      <point x="1139.91" y="943.978" type="curve"/>
      <point x="1111.54" y="955.661"/>
      <point x="1068.15" y="955.661"/>
      <point x="1037.27" y="955.661" type="curve" smooth="yes"/>
      <point x="852.853" y="955.661"/>
      <point x="715.6" y="881.283"/>
      <point x="668.433" y="692.799" type="curve" smooth="yes"/>
      <point x="657.186" y="647.854"/>
      <point x="649.584" y="584.783"/>
      <point x="651.873" y="505.599" type="curve"/>
      <point x="674.244" y="509.901"/>
      <point x="770.125" y="517.912"/>
      <point x="863.837" y="519.781" type="curve" smooth="yes"/>
      <point x="951.903" y="521.538"/>
      <point x="1038.05" y="517.281"/>
      <point x="1041.48" y="517.281" type="curve" smooth="yes"/>
      <point x="1184.18" y="517.281"/>
      <point x="1280.14" y="499.757"/>
      <point x="1280.14" y="336.199" type="curve" smooth="yes"/>
      <point x="1280.14" y="308.661"/>
      <point x="1279.31" y="280.289"/>
      <point x="1275.14" y="252.751" type="curve"/>
      <point x="1411.16" y="257.758"/>
      <point x="1548.01" y="262.765"/>
      <point x="1684.03" y="269.441" type="curve"/>
      <point x="1670.68" y="248.579"/>
      <point x="1668.18" y="185.993"/>
      <point x="1668.18" y="163.462" type="curve" smooth="yes"/>
      <point x="1668.18" y="131.752"/>
      <point x="1676.52" y="49.9726"/>
    </contour>
    <contour>
      <point x="418.636" y="474.984" type="line"/>
      <point x="412.876" y="422.424" type="line"/>
      <point x="335.116" y="410.184" type="line"/>
      <point x="327.916" y="295.704"/>
      <point x="266.716" y="199.224"/>
      <point x="142.876" y="199.224" type="curve" smooth="yes"/>
      <point x="123.436" y="199.224"/>
      <point x="97.5162" y="201.384"/>
      <point x="80.9562" y="212.904" type="curve"/>
      <point x="112.636" y="236.664"/>
      <point x="119.836" y="287.784"/>
      <point x="119.836" y="324.504" type="curve" smooth="yes"/>
      <point x="119.836" y="356.904"/>
      <point x="111.196" y="401.544"/>
      <point x="96.0762" y="431.064" type="curve"/>
    </contour>
  </outline>
</glyph>
<glyph name="h" format="2">
  <advance width="1073"/>
  <unicode hex="0068"/>
  <outline>
    <contour>
      <point x="1024.2" y="914.792" type="curve" smooth="yes"/>
      <point x="1024.2" y="961.348"/>
      <point x="1005.42" y="1011.99"/>
      <point x="950.693" y="1011.99" type="curve" smooth="yes"/>
      <point x="932.723" y="1011.99"/>
      <point x="917.257" y="1009.31"/>
      <point x="900.052" y="1005.45" type="curve" smooth="yes"/>
      <point x="757.933" y="973.6" type="line"/>
      <point x="757.933" y="948.28" type="line"/>
      <point x="780.803" y="932.761"/>
      <point x="805.02" y="912.37"/>
      <point x="802.039" y="881.304" type="curve" smooth="yes"/>
      <point x="786.52" y="719.582" type="line"/>
      <point x="614.18" y="687.728" type="line"/>
      <point x="614.18" y="824.13"/>
      <point x="553.738" y="935.211"/>
      <point x="403.451" y="935.211" type="curve" smooth="yes"/>
      <point x="290.736" y="935.211"/>
      <point x="168.219" y="875.587"/>
      <point x="52.2363" y="861.701" type="curve"/>
      <point x="55.5034" y="835.564"/>
      <point x="58.7705" y="811.061"/>
      <point x="58.7705" y="784.924" type="curve" smooth="yes"/>
      <point x="58.7705" y="749.803"/>
      <point x="48.1523" y="717.948"/>
      <point x="31" y="687.728" type="curve"/>
      <point x="43.2517" y="673.025"/>
      <point x="64.4879" y="668.942"/>
      <point x="82.457" y="668.942" type="curve" smooth="yes"/>
      <point x="178.837" y="668.942"/>
      <point x="281.751" y="752.253"/>
      <point x="281.751" y="852.717" type="curve"/>
      <point x="294.819" y="855.984"/>
      <point x="307.071" y="860.068"/>
      <point x="320.14" y="860.068" type="curve" smooth="yes"/>
      <point x="369.963" y="860.068"/>
      <point x="393.65" y="781.657"/>
      <point x="393.65" y="742.452" type="curve" smooth="yes"/>
      <point x="393.65" y="717.132"/>
      <point x="391.656" y="692.672"/>
      <point x="388.749" y="667.308" type="curve" smooth="yes"/>
      <point x="329.124" y="147.02" type="line" smooth="yes"/>
      <point x="326.967" y="128.198"/>
      <point x="325.04" y="102.097"/>
      <point x="325.04" y="83.3114" type="curve" smooth="yes"/>
      <point x="325.04" y="37.5718"/>
      <point x="332.391" y="0"/>
      <point x="387.115" y="0" type="curve" smooth="yes"/>
      <point x="406.718" y="0"/>
      <point x="424.645" y="2.7964"/>
      <point x="443.473" y="4.9007" type="curve" smooth="yes"/>
      <point x="582.326" y="20.4195" type="line"/>
      <point x="582.326" y="46.5564" type="line"/>
      <point x="551.288" y="61.2584"/>
      <point x="554.555" y="94.7463"/>
      <point x="554.555" y="123.334" type="curve" smooth="yes"/>
      <point x="554.555" y="157.638"/>
      <point x="593.76" y="463.93"/>
      <point x="612.546" y="627.286" type="curve"/>
      <point x="779.986" y="659.14" type="line"/>
      <point x="722.811" y="142.119" type="line" smooth="yes"/>
      <point x="720.64" y="122.484"/>
      <point x="719.544" y="102.914"/>
      <point x="719.544" y="83.3114" type="curve" smooth="yes"/>
      <point x="719.544" y="37.5718"/>
      <point x="727.712" y="0"/>
      <point x="781.619" y="0" type="curve" smooth="yes"/>
      <point x="801.222" y="0"/>
      <point x="819.161" y="2.7064"/>
      <point x="838.794" y="4.9007" type="curve" smooth="yes"/>
      <point x="977.646" y="20.4195" type="line"/>
      <point x="977.646" y="46.5564" type="line"/>
      <point x="956.41" y="55.541"/>
      <point x="948.242" y="69.4262"/>
      <point x="948.242" y="142.119" type="curve" smooth="yes"/>
      <point x="948.242" y="148.654"/>
      <point x="948.35" y="155.992"/>
      <point x="949.059" y="162.539" type="curve" smooth="yes"/>
      <point x="1017.67" y="796.359" type="line" smooth="yes"/>
      <point x="1021.91" y="835.548"/>
      <point x="1024.2" y="875.587"/>
    </contour>
  </outline>
</glyph>
<glyph name="i" format="2">
  <advance width="665"/>
  <unicode hex="0069"/>
  <outline>
    <contour>
      <point x="594.924" y="659.992" type="curve" smooth="yes"/>
      <point x="594.924" y="707.573"/>
      <point x="559.622" y="730.596"/>
      <point x="515.111" y="730.596" type="curve" smooth="yes"/>
      <point x="472.135" y="730.596"/>
      <point x="390.787" y="719.852"/>
      <point x="330.927" y="712.178" type="curve"/>
      <point x="343.974" y="970.803" type="line" smooth="yes"/>
      <point x="345.638" y="1003.8"/>
      <point x="312.509" y="1012.24"/>
      <point x="286.416" y="1012.24" type="curve" smooth="yes"/>
      <point x="261.858" y="1012.24"/>
      <point x="226.556" y="1008.41"/>
      <point x="201.999" y="1004.57" type="curve"/>
      <point x="70" y="985.384" type="line"/>
      <point x="70" y="960.059" type="line"/>
      <point x="99.1625" y="955.454"/>
      <point x="124.488" y="944.71"/>
      <point x="124.488" y="910.943" type="curve" smooth="yes"/>
      <point x="124.488" y="869.502"/>
      <point x="103.767" y="752.852"/>
      <point x="103.767" y="703.736" type="curve" smooth="yes"/>
      <point x="103.767" y="662.295"/>
      <point x="123.72" y="636.969"/>
      <point x="166.697" y="636.969" type="curve" smooth="yes"/>
      <point x="174.371" y="636.969"/>
      <point x="180.543" y="637.464"/>
      <point x="188.185" y="638.504" type="curve" smooth="yes"/>
      <point x="368.531" y="663.062" type="line"/>
      <point x="314.044" y="468.134"/>
      <point x="259.556" y="277.043"/>
      <point x="206.603" y="82.1152" type="curve"/>
      <point x="195.859" y="29.9298"/>
      <point x="244.975" y="0"/>
      <point x="291.021" y="0" type="curve" smooth="yes"/>
      <point x="300.997" y="0"/>
      <point x="310.237" y="0.4403"/>
      <point x="320.183" y="1.5348" type="curve" smooth="yes"/>
      <point x="480.577" y="19.1858" type="line"/>
      <point x="480.577" y="46.8133" type="line"/>
      <point x="460.623" y="55.2551"/>
      <point x="446.042" y="63.6969"/>
      <point x="446.042" y="86.7199" type="curve" smooth="yes"/>
      <point x="446.042" y="122.789"/>
      <point x="594.924" y="597.063"/>
    </contour>
  </outline>
</glyph>
<glyph name="j" format="2">
  <advance width="766"/>
  <unicode hex="006A"/>
  <outline>
    <contour>
      <point x="714.142" y="197.94" type="curve" smooth="yes"/>
      <point x="714.142" y="238.865"/>
      <point x="705.242" y="284.033"/>
      <point x="695.767" y="323.219" type="curve" smooth="yes"/>
      <point x="572.994" y="831.015" type="line" smooth="yes"/>
      <point x="567.757" y="852.677"/>
      <point x="563.807" y="876.115"/>
      <point x="563.807" y="897.83" type="curve" smooth="yes"/>
      <point x="563.807" y="927.897"/>
      <point x="578.006" y="952.118"/>
      <point x="610.578" y="952.118" type="curve"/>
      <point x="610.578" y="979.679" type="line"/>
      <point x="442.705" y="1007.24" type="line" smooth="yes"/>
      <point x="423.464" y="1010.4"/>
      <point x="403.451" y="1012.25"/>
      <point x="384.241" y="1012.25" type="curve" smooth="yes"/>
      <point x="332.459" y="1012.25"/>
      <point x="307.404" y="992.207"/>
      <point x="307.404" y="938.755" type="curve" smooth="yes"/>
      <point x="307.404" y="920.38"/>
      <point x="311.263" y="891.07"/>
      <point x="315.756" y="873.61" type="curve" smooth="yes"/>
      <point x="470.266" y="273.107" type="line" smooth="yes"/>
      <point x="476.475" y="248.977"/>
      <point x="478.618" y="221.326"/>
      <point x="478.618" y="196.27" type="curve" smooth="yes"/>
      <point x="478.618" y="141.982"/>
      <point x="465.255" y="76.8376"/>
      <point x="398.439" y="76.8376" type="curve" smooth="yes"/>
      <point x="375.889" y="76.8376"/>
      <point x="349.163" y="82.6839"/>
      <point x="328.283" y="91.871" type="curve"/>
      <point x="328.283" y="227.172"/>
      <point x="248.94" y="328.23"/>
      <point x="106.958" y="328.23" type="curve" smooth="yes"/>
      <point x="91.0891" y="328.23"/>
      <point x="66.8686" y="326.56"/>
      <point x="51" y="321.548" type="curve"/>
      <point x="81.0669" y="283.965"/>
      <point x="98.6059" y="223.831"/>
      <point x="98.6059" y="176.225" type="curve" smooth="yes"/>
      <point x="98.6059" y="152.84"/>
      <point x="90.254" y="122.773"/>
      <point x="80.2317" y="101.893" type="curve"/>
      <point x="236.412" y="84.3542"/>
      <point x="329.954" y="0"/>
      <point x="496.992" y="0" type="curve" smooth="yes"/>
      <point x="633.128" y="0"/>
      <point x="714.142" y="54.2874"/>
    </contour>
  </outline>
</glyph>
<glyph name="k" format="2">
  <advance width="939"/>
  <unicode hex="006B"/>
  <outline>
    <contour>
      <point x="897.522" y="-39.6905" type="line"/>
      <point x="904.801" y="13.9704"/>
      <point x="919.872" y="137.259"/>
      <point x="916.897" y="175.071" type="curve" smooth="yes"/>
      <point x="912.398" y="232.229"/>
      <point x="885.582" y="246.93"/>
      <point x="772.145" y="238.002" type="curve" smooth="yes"/>
      <point x="617.379" y="225.822"/>
      <point x="461.156" y="198.211"/>
      <point x="500.307" y="604.038" type="curve"/>
      <point x="613.394" y="696.109"/>
      <point x="696.497" y="719.461"/>
      <point x="743.103" y="723.129" type="curve" smooth="yes"/>
      <point x="776.518" y="725.759"/>
      <point x="828.005" y="723.617"/>
      <point x="831.535" y="678.77" type="curve"/>
      <point x="862.312" y="681.192" type="line"/>
      <point x="869.225" y="750.751"/>
      <point x="879.11" y="861.244"/>
      <point x="875.027" y="913.126" type="curve" smooth="yes"/>
      <point x="869.836" y="979.077"/>
      <point x="817.519" y="991.771"/>
      <point x="760.361" y="987.273" type="curve" smooth="yes"/>
      <point x="689.133" y="981.667"/>
      <point x="608.583" y="937.265"/>
      <point x="434.356" y="789.964" type="curve" smooth="yes"/>
      <point x="301.631" y="677.751"/>
      <point x="195.823" y="594.231"/>
      <point x="93.9079" y="573.823" type="curve"/>
      <point x="91.9052" y="711.695" type="line"/>
      <point x="185.491" y="736.756"/>
      <point x="254.679" y="824.488"/>
      <point x="246.928" y="922.975" type="curve" smooth="yes"/>
      <point x="245.752" y="937.924"/>
      <point x="241.343" y="982.702"/>
      <point x="233.942" y="998.046" type="curve"/>
      <point x="192.86" y="969.153"/>
      <point x="145.534" y="952.157"/>
      <point x="95.4109" y="948.212" type="curve" smooth="yes"/>
      <point x="73.427" y="946.482"/>
      <point x="51.2356" y="947.39"/>
      <point x="29.7159" y="951.005" type="curve"/>
      <point x="31.3261" y="-36.3051" type="line"/>
      <point x="65.0672" y="-26.5712"/>
      <point x="102" y="-23.6645"/>
      <point x="136.295" y="-20.9654" type="curve" smooth="yes"/>
      <point x="167.072" y="-18.5432"/>
      <point x="206.733" y="-27.8091"/>
      <point x="234.359" y="-41.561" type="curve"/>
      <point x="246.214" y="-12.3144"/>
      <point x="252.634" y="29.7764"/>
      <point x="250.212" y="60.5538" type="curve" smooth="yes"/>
      <point x="243.153" y="150.248"/>
      <point x="196.82" y="221.809"/>
      <point x="98.3324" y="214.058" type="curve"/>
      <point x="96.4396" y="328.048" type="line"/>
      <point x="204.095" y="354.217"/>
      <point x="322.181" y="450.221"/>
      <point x="433.025" y="548.309" type="curve"/>
      <point x="429.898" y="478.113"/>
      <point x="429.898" y="235.841"/>
      <point x="434.05" y="183.08" type="curve" smooth="yes"/>
      <point x="446.992" y="18.6408"/>
      <point x="569.002" y="-2.55258"/>
      <point x="682.927" y="0.0477198" type="curve" smooth="yes"/>
      <point x="790.689" y="2.50732"/>
      <point x="859.441" y="-5.52597"/>
      <point x="873.779" y="-41.5591" type="curve"/>
    </contour>
  </outline>
</glyph>
<glyph name="l" format="2">
  <advance width="924"/>
  <unicode hex="006C"/>
  <outline>
    <contour>
      <point x="868.908" y="37.4264" type="curve"/>
      <point x="827.149" y="58.3059"/>
      <point x="809.482" y="118.535"/>
      <point x="809.482" y="161.098" type="curve" smooth="yes"/>
      <point x="809.482" y="185.992"/>
      <point x="815.906" y="220.524"/>
      <point x="827.952" y="243.01" type="curve"/>
      <point x="815.906" y="249.434"/>
      <point x="794.224" y="251.04"/>
      <point x="781.375" y="251.04" type="curve" smooth="yes"/>
      <point x="690.629" y="251.04"/>
      <point x="591.853" y="222.13"/>
      <point x="564.549" y="124.96" type="curve"/>
      <point x="521.184" y="102.474"/>
      <point x="460.151" y="87.2161"/>
      <point x="411.968" y="87.2161" type="curve" smooth="yes"/>
      <point x="326.843" y="87.2161"/>
      <point x="305.161" y="124.96"/>
      <point x="305.161" y="205.266" type="curve" smooth="yes"/>
      <point x="305.161" y="477.503"/>
      <point x="793.421" y="695.935"/>
      <point x="793.421" y="920.792" type="curve" smooth="yes"/>
      <point x="793.421" y="951.308"/>
      <point x="778.966" y="986.643"/>
      <point x="743.631" y="986.643" type="curve" smooth="yes"/>
      <point x="729.176" y="986.643"/>
      <point x="713.97" y="985.503"/>
      <point x="699.463" y="983.43" type="curve" smooth="yes"/>
      <point x="525.199" y="958.535" type="line"/>
      <point x="525.199" y="924.004" type="line"/>
      <point x="538.851" y="918.383"/>
      <point x="554.912" y="902.321"/>
      <point x="554.912" y="886.26" type="curve" smooth="yes"/>
      <point x="554.912" y="676.662"/>
      <point x="53" y="488.746"/>
      <point x="53" y="197.235" type="curve" smooth="yes"/>
      <point x="53" y="59.1089"/>
      <point x="159.004" y="-0.31745"/>
      <point x="285.084" y="-0.31745" type="curve" smooth="yes"/>
      <point x="375.027" y="-0.31745"/>
      <point x="492.274" y="32.608"/>
      <point x="575.792" y="68.7457" type="curve"/>
      <point x="599.08" y="0.485613"/>
      <point x="667.34" y="-22"/>
      <point x="733.994" y="-22" type="curve" smooth="yes"/>
      <point x="780.572" y="-22"/>
      <point x="839.195" y="-1.12045"/>
    </contour>
  </outline>
</glyph>
<glyph name="m" format="2">
  <advance width="2073"/>
  <unicode hex="006D"/>
  <outline>
    <contour>
      <point x="2027.67" y="257.02" type="curve" smooth="yes"/>
      <point x="2027.67" y="338.886"/>
      <point x="1985.79" y="415.04"/>
      <point x="1895.35" y="415.04" type="curve" smooth="yes"/>
      <point x="1823.01" y="415.04"/>
      <point x="1743.04" y="394.097"/>
      <point x="1674.51" y="374.107" type="curve"/>
      <point x="1677.36" y="451.213"/>
      <point x="1681.17" y="529.271"/>
      <point x="1681.17" y="606.377" type="curve" smooth="yes"/>
      <point x="1681.17" y="872.916"/>
      <point x="1488.88" y="1011.9"/>
      <point x="1236.62" y="1011.9" type="curve" smooth="yes"/>
      <point x="1166.18" y="1011.9"/>
      <point x="1094.78" y="1005.23"/>
      <point x="1025.29" y="996.667" type="curve"/>
      <point x="989.119" y="1013.8" type="line"/>
      <point x="886.31" y="1008.09"/>
      <point x="785.385" y="988.238"/>
      <point x="684.502" y="972.869" type="curve" smooth="yes"/>
      <point x="541.692" y="951.112"/>
      <point x="367.305" y="886.491"/>
      <point x="256.135" y="793.906" type="curve" smooth="yes"/>
      <point x="59.8326" y="630.422"/>
      <point x="41" y="337.934"/>
      <point x="41" y="100.904" type="curve" smooth="yes"/>
      <point x="41" y="34.2693"/>
      <point x="56.2308" y="0"/>
      <point x="126.673" y="0" type="curve" smooth="yes"/>
      <point x="167.606" y="0"/>
      <point x="206.552" y="7.90969"/>
      <point x="246.616" y="19.0385" type="curve" smooth="yes"/>
      <point x="275.094" y="26.9489"/>
      <point x="303.732" y="39.2318"/>
      <point x="333.241" y="39.029" type="curve" smooth="yes"/>
      <point x="580.744" y="37.328"/>
      <point x="663.56" y="99"/>
      <point x="663.56" y="243.693" type="curve" smooth="yes"/>
      <point x="663.56" y="324.607"/>
      <point x="615.012" y="411.232"/>
      <point x="524.579" y="411.232" type="curve" smooth="yes"/>
      <point x="456.992" y="411.232"/>
      <point x="392.261" y="389.338"/>
      <point x="323.722" y="388.386" type="curve"/>
      <point x="326.578" y="632.079"/>
      <point x="420.819" y="896.714"/>
      <point x="706.396" y="896.714" type="curve" smooth="yes"/>
      <point x="755.897" y="896.714"/>
      <point x="768.272" y="889.099"/>
      <point x="768.272" y="861.493" type="curve" smooth="yes"/>
      <point x="768.272" y="792.002"/>
      <point x="729.243" y="121.846"/>
      <point x="729.243" y="71.3942" type="curve" smooth="yes"/>
      <point x="729.243" y="6.66321"/>
      <point x="747.329" y="0"/>
      <point x="809.205" y="0" type="curve" smooth="yes"/>
      <point x="883.455" y="0"/>
      <point x="951.042" y="37.1251"/>
      <point x="1015.77" y="37.1251" type="curve" smooth="yes"/>
      <point x="1129.05" y="37.1251" type="line" smooth="yes"/>
      <point x="1255.66" y="37.1251"/>
      <point x="1339.43" y="99.9523"/>
      <point x="1339.43" y="232.27" type="curve" smooth="yes"/>
      <point x="1339.43" y="316.991"/>
      <point x="1282.31" y="390.29"/>
      <point x="1193.78" y="390.29" type="curve" smooth="yes"/>
      <point x="1159.51" y="390.29"/>
      <point x="1128.15" y="382.327"/>
      <point x="1093.83" y="377.915" type="curve" smooth="yes"/>
      <point x="1061.51" y="373.759"/>
      <point x="1029.1" y="374.107"/>
      <point x="996.734" y="374.107" type="curve"/>
      <point x="1021.48" y="908.138" type="line" smooth="yes"/>
      <point x="1022.5" y="930.029"/>
      <point x="1070.98" y="935.744"/>
      <point x="1150.95" y="935.744" type="curve" smooth="yes"/>
      <point x="1352.75" y="935.744"/>
      <point x="1428.91" y="815.801"/>
      <point x="1428.91" y="625.416" type="curve" smooth="yes"/>
      <point x="1428.91" y="504.521"/>
      <point x="1404.16" y="195.145"/>
      <point x="1404.16" y="105.664" type="curve" smooth="yes"/>
      <point x="1404.16" y="38.0771"/>
      <point x="1416.53" y="0"/>
      <point x="1491.74" y="0" type="curve" smooth="yes"/>
      <point x="1565.99" y="0"/>
      <point x="1614.55" y="22.5923"/>
      <point x="1677.36" y="25.702" type="curve" smooth="yes"/>
      <point x="1710.69" y="27.352"/>
      <point x="1743.06" y="28.1054"/>
      <point x="1776.36" y="29.5097" type="curve" smooth="yes"/>
      <point x="1901.08" y="34.7691"/>
      <point x="2027.67" y="121.847"/>
    </contour>
    <contour>
      <point x="1802.06" y="206.568" type="curve" smooth="yes"/>
      <point x="1802.06" y="155.164"/>
      <point x="1784.93" y="89.4811"/>
      <point x="1722.1" y="89.4811" type="curve" smooth="yes"/>
      <point x="1665.94" y="89.4811"/>
      <point x="1661.18" y="120.895"/>
      <point x="1661.18" y="171.347" type="curve" smooth="yes"/>
      <point x="1661.18" y="216.087"/>
      <point x="1663.08" y="263.684"/>
      <point x="1668.79" y="308.424" type="curve"/>
      <point x="1685.93" y="316.04"/>
      <point x="1704.97" y="321.751"/>
      <point x="1724.01" y="321.751" type="curve" smooth="yes"/>
      <point x="1789.69" y="321.751"/>
      <point x="1802.06" y="258.924"/>
    </contour>
    <contour>
      <point x="1127.15" y="216.087" type="curve" smooth="yes"/>
      <point x="1127.15" y="159.924"/>
      <point x="1114.77" y="100.904"/>
      <point x="1047.19" y="100.904" type="curve" smooth="yes"/>
      <point x="983.407" y="100.904"/>
      <point x="987.215" y="126.606"/>
      <point x="987.215" y="183.722" type="curve" smooth="yes"/>
      <point x="987.215" y="226.558"/>
      <point x="990.071" y="269.395"/>
      <point x="992.926" y="312.232" type="curve"/>
      <point x="1009.11" y="319.847"/>
      <point x="1031" y="325.559"/>
      <point x="1049.09" y="325.559" type="curve" smooth="yes"/>
      <point x="1113.82" y="325.559"/>
      <point x="1127.15" y="269.395"/>
    </contour>
    <contour>
      <point x="450.328" y="217.991" type="curve" smooth="yes"/>
      <point x="450.328" y="167.539"/>
      <point x="435.097" y="100.904"/>
      <point x="372.27" y="100.904" type="curve" smooth="yes"/>
      <point x="316.107" y="100.904"/>
      <point x="312.299" y="134.222"/>
      <point x="312.299" y="183.722" type="curve" smooth="yes"/>
      <point x="312.299" y="226.558"/>
      <point x="314.203" y="270.347"/>
      <point x="319.914" y="312.232" type="curve"/>
      <point x="336.097" y="318.895"/>
      <point x="356.088" y="325.559"/>
      <point x="374.174" y="325.559" type="curve" smooth="yes"/>
      <point x="438.905" y="325.559"/>
      <point x="450.328" y="271.299"/>
    </contour>
  </outline>
</glyph>
<glyph name="n" format="2">
  <advance width="1289"/>
  <unicode hex="006E"/>
  <outline>
    <contour>
      <point x="43.0342" y="39.6672" type="line"/>
      <point x="101.009" y="26.4448"/>
      <point x="224.079" y="0"/>
      <point x="274.934" y="0" type="curve" smooth="yes"/>
      <point x="335.961" y="0"/>
      <point x="349.183" y="81.3685"/>
      <point x="349.183" y="127.138" type="curve" smooth="yes"/>
      <point x="349.183" y="280.721"/>
      <point x="303.413" y="614.332"/>
      <point x="303.413" y="802.497" type="curve" smooth="yes"/>
      <point x="303.413" y="898.105"/>
      <point x="328.841" y="931.67"/>
      <point x="384.782" y="931.67" type="curve" smooth="yes"/>
      <point x="473.27" y="931.67"/>
      <point x="499.641" y="819.786"/>
      <point x="508.869" y="508.553" type="curve" smooth="yes"/>
      <point x="522.017" y="65.0926"/>
      <point x="600.409" y="0"/>
      <point x="971.652" y="0" type="curve" smooth="yes"/>
      <point x="1197.45" y="0"/>
      <point x="1247.29" y="90.5225"/>
      <point x="1247.29" y="401.757" type="curve" smooth="yes"/>
      <point x="1247.29" y="727.231"/>
      <point x="1173.04" y="889.968"/>
      <point x="903.506" y="889.968" type="curve"/>
      <point x="903.506" y="864.541" type="line"/>
      <point x="948.259" y="848.267"/>
      <point x="981.823" y="714.009"/>
      <point x="981.823" y="417.014" type="curve" smooth="yes"/>
      <point x="981.823" y="146.463"/>
      <point x="957.413" y="81.3685"/>
      <point x="891.301" y="81.3685" type="curve" smooth="yes"/>
      <point x="815.018" y="81.3685"/>
      <point x="786.513" y="153.583"/>
      <point x="781.454" y="447.527" type="curve" smooth="yes"/>
      <point x="776.342" y="744.522"/>
      <point x="756.122" y="854.478"/>
      <point x="703.136" y="901.156" type="curve" smooth="yes"/>
      <point x="670.685" y="929.745"/>
      <point x="624.889" y="945.108"/>
      <point x="584.135" y="958.114" type="curve" smooth="yes"/>
      <point x="481.476" y="990.878"/>
      <point x="387.833" y="1012.02"/>
      <point x="277.986" y="1012.02" type="curve" smooth="yes"/>
      <point x="73.5474" y="1012.02"/>
      <point x="41" y="907.259"/>
      <point x="41" y="717.06" type="curve" smooth="yes"/>
      <point x="41" y="564.494"/>
      <point x="70.4961" y="295.978"/>
      <point x="70.4961" y="143.412" type="curve" smooth="yes"/>
      <point x="70.4961" y="97.6423"/>
      <point x="62.3585" y="75.2659"/>
      <point x="48.119" y="75.2659" type="curve"/>
      <point x="46.0848" y="75.2659"/>
      <point x="44.0506" y="75.2659"/>
      <point x="43.0335" y="76.283" type="curve"/>
    </contour>
  </outline>
</glyph>
<glyph name="o" format="2">
  <advance width="907"/>
  <unicode hex="006F"/>
  <outline>
    <contour>
      <point x="804.433" y="741.136" type="curve" smooth="yes"/>
      <point x="759.235" y="909.817"/>
      <point x="687.451" y="1007.22"/>
      <point x="496.922" y="974.638" type="curve"/>
      <point x="429.381" y="1266.61" type="line" smooth="yes"/>
      <point x="421.549" y="1300.47"/>
      <point x="402.413" y="1312.84"/>
      <point x="367.951" y="1303.61" type="curve" smooth="yes"/>
      <point x="358.882" y="1301.18"/>
      <point x="349.206" y="1297.48"/>
      <point x="340.566" y="1293.35" type="curve" smooth="yes"/>
      <point x="169.087" y="1211.44" type="line"/>
      <point x="176.62" y="1183.33" type="line"/>
      <point x="195.356" y="1193.21"/>
      <point x="210.227" y="1148.59"/>
      <point x="211.199" y="1144.97" type="curve"/>
      <point x="272.908" y="874.762" type="line"/>
      <point x="44.3338" y="693.96"/>
      <point x="39.9135" y="496.431"/>
      <point x="111.112" y="230.713" type="curve" smooth="yes"/>
      <point x="147.562" y="94.6796"/>
      <point x="203.17" y="-29.4165"/>
      <point x="364.596" y="13.8375" type="curve" smooth="yes"/>
      <point x="454.378" y="37.8945"/>
      <point x="516.521" y="110.822"/>
      <point x="557.433" y="139.38" type="curve" smooth="yes"/>
      <point x="573.022" y="150.262"/>
      <point x="588.801" y="156.533"/>
      <point x="605.303" y="163.871" type="curve"/>
      <point x="634.436" y="178.481"/>
      <point x="659.424" y="194.578"/>
      <point x="684.831" y="215.312" type="curve" smooth="yes"/>
      <point x="858.025" y="356.657"/>
      <point x="859.108" y="537.086"/>
    </contour>
    <contour>
      <point x="548.378" y="731.818" type="curve" smooth="yes"/>
      <point x="578.024" y="621.177"/>
      <point x="590.902" y="435.986"/>
      <point x="579.345" y="326.043" type="curve" smooth="yes"/>
      <point x="568.717" y="224.95"/>
      <point x="536.748" y="191.185"/>
      <point x="476.893" y="175.147" type="curve" smooth="yes"/>
      <point x="400.715" y="154.735"/>
      <point x="376.918" y="229.035"/>
      <point x="361.123" y="287.983" type="curve" smooth="yes"/>
      <point x="334.879" y="385.927"/>
      <point x="295.032" y="701.797"/>
      <point x="319.394" y="791.962" type="curve" smooth="yes"/>
      <point x="332.122" y="839.067"/>
      <point x="361.267" y="875.11"/>
      <point x="409.332" y="887.989" type="curve" smooth="yes"/>
      <point x="493.673" y="910.588"/>
      <point x="532.34" y="791.672"/>
    </contour>
  </outline>
</glyph>
<glyph name="p" format="2">
  <advance width="713"/>
  <unicode hex="0070"/>
  <outline>
    <contour>
      <point x="642.977" y="838.249" type="curve" smooth="yes"/>
      <point x="642.977" y="964.026"/>
      <point x="563.293" y="1012.46"/>
      <point x="446.11" y="1012.46" type="curve" smooth="yes"/>
      <point x="248.461" y="1012.46"/>
      <point x="43" y="926.527"/>
      <point x="43" y="699.192" type="curve" smooth="yes"/>
      <point x="43" y="521.074"/>
      <point x="164.089" y="493.731"/>
      <point x="164.089" y="142.182" type="curve" smooth="yes"/>
      <point x="164.089" y="110.933"/>
      <point x="159.402" y="80.4657"/>
      <point x="159.402" y="49.2169" type="curve" smooth="yes"/>
      <point x="159.402" y="11.7183"/>
      <point x="199.244" y="0"/>
      <point x="229.712" y="0" type="curve" smooth="yes"/>
      <point x="263.304" y="0"/>
      <point x="370.331" y="22.6554"/>
      <point x="417.204" y="32.03" type="curve"/>
      <point x="417.204" y="51.5605" type="line"/>
      <point x="380.487" y="57.0291"/>
      <point x="374.237" y="114.839"/>
      <point x="374.237" y="257.803" type="curve" smooth="yes"/>
      <point x="374.237" y="361.705"/>
      <point x="357.832" y="441.389"/>
      <point x="313.302" y="534.354" type="curve"/>
      <point x="478.921" y="550.76"/>
      <point x="642.977" y="656.225"/>
    </contour>
    <contour>
      <point x="437.516" y="860.904" type="curve" smooth="yes"/>
      <point x="437.516" y="755.44"/>
      <point x="384.393" y="632.788"/>
      <point x="287.522" y="582.009" type="curve"/>
      <point x="259.398" y="637.475"/>
      <point x="244.555" y="683.567"/>
      <point x="244.555" y="746.846" type="curve" smooth="yes"/>
      <point x="244.555" y="881.216"/>
      <point x="321.114" y="950.745"/>
      <point x="371.894" y="950.745" type="curve" smooth="yes"/>
      <point x="415.642" y="950.745"/>
      <point x="437.516" y="897.622"/>
    </contour>
  </outline>
</glyph>
<glyph name="q" format="2">
  <advance width="1134"/>
  <unicode hex="0071"/>
  <outline>
    <contour>
      <point x="1103.82" y="-194.095" type="curve"/>
      <point x="1071.11" y="-180.779"/>
      <point x="1049.39" y="-132.715"/>
      <point x="1040.78" y="-100.574" type="curve" smooth="yes"/>
      <point x="1031.73" y="-66.7848"/>
      <point x="1025.29" y="-16.3946"/>
      <point x="1052.36" y="11.1725" type="curve"/>
      <point x="1013.22" y="12.1699"/>
      <point x="971.295" y="7.11836"/>
      <point x="933.385" y="-3.03956" type="curve" smooth="yes"/>
      <point x="897.123" y="-12.7558"/>
      <point x="862.407" y="-28.241"/>
      <point x="834.904" y="-54.1598" type="curve"/>
      <point x="773.504" y="-45.8795"/>
      <point x="732.325" y="-33.9476"/>
      <point x="714.88" y="31.1585" type="curve" smooth="yes"/>
      <point x="710.464" y="47.641"/>
      <point x="700.006" y="152.601"/>
      <point x="697.442" y="181.946" type="curve"/>
      <point x="876.321" y="239.593"/>
      <point x="1113.73" y="349.137"/>
      <point x="1052.12" y="579.069" type="curve" smooth="yes"/>
      <point x="1021.42" y="693.622"/>
      <point x="927.982" y="699.501"/>
      <point x="829.911" y="673.223" type="curve" smooth="yes"/>
      <point x="787.056" y="661.74"/>
      <point x="714.269" y="633.404"/>
      <point x="658.347" y="611.353" type="curve"/>
      <point x="637.986" y="862.054" type="line" smooth="yes"/>
      <point x="635.873" y="888.071"/>
      <point x="631.815" y="921.348"/>
      <point x="626.515" y="941.127" type="curve" smooth="yes"/>
      <point x="610.616" y="1000.46"/>
      <point x="591.187" y="1023.52"/>
      <point x="529.378" y="1006.96" type="curve" smooth="yes"/>
      <point x="511.247" y="1002.1"/>
      <point x="490.464" y="993.933"/>
      <point x="473.014" y="986.559" type="curve" smooth="yes"/>
      <point x="330.191" y="926.208" type="line"/>
      <point x="336.816" y="901.484" type="line"/>
      <point x="370.18" y="898.941"/>
      <point x="385.03" y="889.67"/>
      <point x="398.942" y="837.75" type="curve" smooth="yes"/>
      <point x="404.904" y="815.499"/>
      <point x="408.251" y="791.732"/>
      <point x="410.235" y="769.229" type="curve" smooth="yes"/>
      <point x="431.463" y="528.477" type="line"/>
      <point x="193.263" y="441.686"/>
      <point x="31.5921" y="333.002"/>
      <point x="78.1861" y="159.111" type="curve" smooth="yes"/>
      <point x="108.66" y="45.3818"/>
      <point x="200.04" y="14.2192"/>
      <point x="306.352" y="42.7055" type="curve" smooth="yes"/>
      <point x="361.569" y="57.5008"/>
      <point x="415.46" y="77.2408"/>
      <point x="468.91" y="98.629" type="curve"/>
      <point x="472.771" y="41.3659"/>
      <point x="479.814" y="-57.4428"/>
      <point x="489.751" y="-94.5286" type="curve" smooth="yes"/>
      <point x="501.676" y="-139.032"/>
      <point x="525.605" y="-155.966"/>
      <point x="571.376" y="-148.621" type="curve" smooth="yes"/>
      <point x="793.26" y="-113.016" type="line"/>
      <point x="783.343" y="-138.639"/>
      <point x="780.299" y="-166.837"/>
      <point x="787.586" y="-194.033" type="curve" smooth="yes"/>
      <point x="811.877" y="-284.688"/>
      <point x="912.113" y="-276.379"/>
      <point x="983.812" y="-257.167" type="curve" smooth="yes"/>
      <point x="1028.31" y="-245.242"/>
      <point x="1069.79" y="-225.297"/>
    </contour>
    <contour>
      <point x="692.138" y="251.189" type="curve"/>
      <point x="665.681" y="544.421" type="line"/>
      <point x="677.381" y="550.206"/>
      <point x="689.522" y="554.342"/>
      <point x="701.884" y="557.655" type="curve" smooth="yes"/>
      <point x="775.231" y="577.308"/>
      <point x="810.129" y="532.778"/>
      <point x="827.795" y="466.848" type="curve" smooth="yes"/>
      <point x="860.035" y="346.525"/>
      <point x="807.516" y="282.104"/>
    </contour>
    <contour>
      <point x="316.327" y="249.42" type="curve" smooth="yes"/>
      <point x="294.466" y="331.009"/>
      <point x="332.426" y="436.576"/>
      <point x="419.784" y="459.984" type="curve" smooth="yes"/>
      <point x="424.729" y="461.309"/>
      <point x="430.718" y="462.03"/>
      <point x="435.884" y="462.531" type="curve"/>
      <point x="463.224" y="166.003" type="line"/>
      <point x="431.083" y="157.39" type="line" smooth="yes"/>
      <point x="367.625" y="140.387"/>
      <point x="330.46" y="196.676"/>
    </contour>
  </outline>
</glyph>
<glyph name="r" format="2">
  <advance width="909"/>
  <unicode hex="0072"/>
  <outline>
    <contour>
      <point x="887.644" y="34.5516" type="line"/>
      <point x="885.937" y="55.8878" type="line"/>
      <point x="855.213" y="55.8878"/>
      <point x="840.677" y="96.8512"/>
      <point x="831.317" y="227.43" type="curve" smooth="yes"/>
      <point x="823.608" y="334.963"/>
      <point x="798.032" y="453.594"/>
      <point x="675.99" y="453.594" type="curve" smooth="yes"/>
      <point x="625.636" y="453.594"/>
      <point x="574.43" y="453.594"/>
      <point x="524.076" y="451.887" type="curve"/>
      <point x="536.878" y="466.395" type="line" smooth="yes"/>
      <point x="571.672" y="505.829"/>
      <point x="607.649" y="543.26"/>
      <point x="641.852" y="583.317" type="curve" smooth="yes"/>
      <point x="702.382" y="654.209"/>
      <point x="749.386" y="713.041"/>
      <point x="749.386" y="810.334" type="curve" smooth="yes"/>
      <point x="749.386" y="965.661"/>
      <point x="643.559" y="1011.75"/>
      <point x="501.887" y="1011.75" type="curve" smooth="yes"/>
      <point x="303.887" y="1011.75"/>
      <point x="108.448" y="954.566"/>
      <point x="108.448" y="719.869" type="curve" smooth="yes"/>
      <point x="108.448" y="632.817"/>
      <point x="144.293" y="573.076"/>
      <point x="237.318" y="573.076" type="curve" smooth="yes"/>
      <point x="286.818" y="573.076"/>
      <point x="335.465" y="579.904"/>
      <point x="384.111" y="581.61" type="curve"/>
      <point x="347.413" y="541.499"/>
      <point x="310.38" y="500.027"/>
      <point x="272.31" y="462.982" type="curve" smooth="yes"/>
      <point x="88.4822" y="284.103"/>
      <point x="47" y="196.706"/>
      <point x="47" y="111.362" type="curve" smooth="yes"/>
      <point x="47" y="43.0861"/>
      <point x="88.8188" y="22.6034"/>
      <point x="150.267" y="22.6034" type="curve" smooth="yes"/>
      <point x="169.043" y="22.6034"/>
      <point x="186.113" y="25.999"/>
      <point x="204.034" y="27.724" type="curve" smooth="yes"/>
      <point x="363.628" y="43.086" type="line"/>
      <point x="363.628" y="67.836" type="line"/>
      <point x="314.129" y="77.2239"/>
      <point x="293.646" y="91.7325"/>
      <point x="293.646" y="144.646" type="curve" smooth="yes"/>
      <point x="293.646" y="184.758"/>
      <point x="322.663" y="235.111"/>
      <point x="468.602" y="391.292" type="curve"/>
      <point x="571.016" y="375.93"/>
      <point x="580.643" y="299.143"/>
      <point x="588.938" y="211.215" type="curve" smooth="yes"/>
      <point x="593.445" y="163.444"/>
      <point x="601.401" y="46.1326"/>
      <point x="639.292" y="11.5085" type="curve" smooth="yes"/>
      <point x="650.909" y="0.892961"/>
      <point x="665.748" y="-3"/>
      <point x="681.11" y="-3" type="curve" smooth="yes"/>
      <point x="696.472" y="-3"/>
      <point x="711.028" y="0.158009"/>
      <point x="725.49" y="2.97412" type="curve" smooth="yes"/>
    </contour>
    <contour>
      <point x="518.956" y="833.377" type="curve" smooth="yes"/>
      <point x="518.956" y="756.567"/>
      <point x="483.111" y="699.386"/>
      <point x="437.025" y="641.352" type="curve"/>
      <point x="359.361" y="649.033"/>
      <point x="328.637" y="689.998"/>
      <point x="328.637" y="765.101" type="curve" smooth="yes"/>
      <point x="328.637" y="829.963"/>
      <point x="355.947" y="933.23"/>
      <point x="437.025" y="933.23" type="curve" smooth="yes"/>
      <point x="497.619" y="933.23"/>
      <point x="518.956" y="887.998"/>
    </contour>
  </outline>
</glyph>
<glyph name="s" format="2">
  <advance width="938"/>
  <unicode hex="0073"/>
  <outline>
    <contour>
      <point x="867.563" y="839.015" type="curve" smooth="yes"/>
      <point x="867.563" y="940.329"/>
      <point x="788.34" y="1016.5"/>
      <point x="687.787" y="1016.5" type="curve" smooth="yes"/>
      <point x="480.589" y="1016.5"/>
      <point x="263.487" y="912.906"/>
      <point x="263.487" y="678.284" type="curve" smooth="yes"/>
      <point x="263.487" y="532.787"/>
      <point x="343.472" y="329.397"/>
      <point x="415.077" y="200.66" type="curve"/>
      <point x="288.625" y="157.24" type="line"/>
      <point x="270.343" y="177.807"/>
      <point x="227.684" y="184.663"/>
      <point x="202.546" y="184.663" type="curve" smooth="yes"/>
      <point x="161.411" y="184.663"/>
      <point x="106.564" y="165.619"/>
      <point x="70" y="145.813" type="curve"/>
      <point x="79.9029" y="107.725"/>
      <point x="87.5205" y="65.8285"/>
      <point x="87.5205" y="26.217" type="curve" smooth="yes"/>
      <point x="87.5205" y="-3.49164"/>
      <point x="82.1882" y="-40.8179"/>
      <point x="70" y="-69.003" type="curve"/>
      <point x="82.9499" y="-79.6676"/>
      <point x="107.326" y="-85"/>
      <point x="123.323" y="-85" type="curve" smooth="yes"/>
      <point x="204.07" y="-85"/>
      <point x="322.904" y="-31.6768"/>
      <point x="322.904" y="63.5432" type="curve" smooth="yes"/>
      <point x="322.904" y="74.9696"/>
      <point x="321.381" y="99.3459"/>
      <point x="315.287" y="111.534" type="curve"/>
      <point x="610.088" y="217.419" type="line"/>
      <point x="554.479" y="326.35"/>
      <point x="504.965" y="447.47"/>
      <point x="480.589" y="567.067" type="curve"/>
      <point x="658.841" y="570.114"/>
      <point x="867.563" y="622.675"/>
    </contour>
    <contour>
      <point x="680.17" y="879.388" type="curve" smooth="yes"/>
      <point x="680.17" y="769.695"/>
      <point x="571.238" y="660.001"/>
      <point x="472.971" y="626.484" type="curve"/>
      <point x="463.068" y="739.224"/>
      <point x="504.203" y="954.041"/>
      <point x="625.323" y="954.041" type="curve" smooth="yes"/>
      <point x="667.982" y="954.041"/>
      <point x="680.17" y="915.191"/>
    </contour>
  </outline>
</glyph>
<glyph name="t" format="2">
  <advance width="1280"/>
  <unicode hex="0074"/>
  <outline>
    <contour>
      <point x="1265.77" y="789.593" type="curve"/>
      <point x="1232.9" y="815.538"/>
      <point x="1223.39" y="891.643"/>
      <point x="1223.39" y="929.696" type="curve" smooth="yes"/>
      <point x="1223.39" y="958.235"/>
      <point x="1225.98" y="999.747"/>
      <point x="1236.36" y="1027.42" type="curve"/>
      <point x="70.567" y="956.505" type="line"/>
      <point x="93.9175" y="926.236"/>
      <point x="106.025" y="876.941"/>
      <point x="106.025" y="839.753" type="curve" smooth="yes"/>
      <point x="106.025" y="800.835"/>
      <point x="86.134" y="755"/>
      <point x="55" y="729.92" type="curve"/>
      <point x="87.8637" y="714.353"/>
      <point x="133.7" y="701.38"/>
      <point x="170.023" y="701.38" type="curve" smooth="yes"/>
      <point x="273.803" y="701.38"/>
      <point x="372.394" y="809.484"/>
      <point x="362.881" y="908.94" type="curve"/>
      <point x="366.34" y="912.4"/>
      <point x="515.091" y="920.183"/>
      <point x="530.658" y="921.048" type="curve"/>
      <point x="490.011" y="627.005" type="line"/>
      <point x="626.655" y="627.005" type="line"/>
      <point x="571.305" y="238.695" type="line" smooth="yes"/>
      <point x="565.265" y="196.316"/>
      <point x="554.009" y="110.699"/>
      <point x="554.009" y="82.1597" type="curve" smooth="yes"/>
      <point x="554.009" y="43.2423"/>
      <point x="566.116" y="0"/>
      <point x="631.844" y="0" type="curve" smooth="yes"/>
      <point x="650.87" y="0"/>
      <point x="668.179" y="3.33393"/>
      <point x="687.193" y="5.18903" type="curve" smooth="yes"/>
      <point x="829.026" y="19.0264" type="line"/>
      <point x="829.026" y="42.3769" type="line"/>
      <point x="804.81" y="60.5384"/>
      <point x="795.297" y="95.9965"/>
      <point x="795.297" y="125.401" type="curve" smooth="yes"/>
      <point x="795.297" y="160.859"/>
      <point x="802.654" y="198.849"/>
      <point x="807.405" y="233.505" type="curve" smooth="yes"/>
      <point x="866.214" y="662.462" type="line"/>
      <point x="731.3" y="662.462" type="line"/>
      <point x="773.676" y="934.885" type="line"/>
      <point x="956.156" y="944.398" type="line"/>
      <point x="950.102" y="818.997"/>
      <point x="1014.1" y="755.864"/>
      <point x="1140.37" y="755.864" type="curve" smooth="yes"/>
      <point x="1180.15" y="755.864"/>
      <point x="1231.17" y="768.837"/>
    </contour>
  </outline>
</glyph>
<glyph name="u" format="2">
  <advance width="929"/>
  <unicode hex="0075"/>
  <outline>
    <contour>
      <point x="885.661" y="694.501" type="curve" smooth="yes"/>
      <point x="885.661" y="827.509"/>
      <point x="885.661" y="1011.87"/>
      <point x="820" y="1011.87" type="curve" smooth="yes"/>
      <point x="780.434" y="1011.87"/>
      <point x="649.111" y="974.827"/>
      <point x="602.811" y="962.2" type="curve"/>
      <point x="602.811" y="934.42" type="line"/>
      <point x="637.325" y="915.058"/>
      <point x="648.269" y="830.034"/>
      <point x="648.269" y="717.23" type="curve" smooth="yes"/>
      <point x="648.269" y="590.957"/>
      <point x="623.856" y="80.8146"/>
      <point x="447.916" y="80.8146" type="curve" smooth="yes"/>
      <point x="371.31" y="80.8146"/>
      <point x="346.056" y="136.375"/>
      <point x="346.056" y="205.404" type="curve" smooth="yes"/>
      <point x="346.056" y="228.975"/>
      <point x="360.707" y="308.041"/>
      <point x="369.627" y="356.09" type="curve" smooth="yes"/>
      <point x="386.804" y="448.627"/>
      <point x="404.141" y="542.132"/>
      <point x="421.819" y="634.732" type="curve"/>
      <point x="293.021" y="608.635" type="line"/>
      <point x="302.281" y="658.303"/>
      <point x="334.27" y="795.519"/>
      <point x="334.27" y="840.978" type="curve" smooth="yes"/>
      <point x="334.27" y="878.86"/>
      <point x="330.061" y="915.058"/>
      <point x="283.761" y="915.058" type="curve" smooth="yes"/>
      <point x="244.195" y="915.058"/>
      <point x="113.713" y="882.227"/>
      <point x="59.837" y="868.758" type="curve"/>
      <point x="59.837" y="848.554" type="line"/>
      <point x="85.0916" y="843.503"/>
      <point x="94.3516" y="807.305"/>
      <point x="94.3516" y="787.943" type="curve" smooth="yes"/>
      <point x="94.3516" y="745.852"/>
      <point x="58.9952" y="578.33"/>
      <point x="43" y="494.99" type="curve"/>
      <point x="165.064" y="516.877" type="line"/>
      <point x="149.911" y="428.486"/>
      <point x="120.447" y="263.489"/>
      <point x="120.447" y="212.139" type="curve" smooth="yes"/>
      <point x="120.447" y="69.871"/>
      <point x="180.217" y="0"/>
      <point x="329.219" y="0" type="curve" smooth="yes"/>
      <point x="468.119" y="0"/>
      <point x="615.391" y="38.774"/>
      <point x="718.981" y="134.691" type="curve" smooth="yes"/>
      <point x="865.411" y="270.274"/>
      <point x="885.661" y="507.617"/>
    </contour>
  </outline>
</glyph>
<glyph name="v" format="2">
  <advance width="787"/>
  <unicode hex="0076"/>
  <outline>
    <contour>
      <point x="20.2365" y="956.456" type="line"/>
      <point x="20.2365" y="928.258" type="line"/>
      <point x="174.946" y="884.817"/>
      <point x="12.6154" y="310.181"/>
      <point x="294.598" y="162.331" type="curve"/>
      <point x="366.237" y="0" type="line"/>
      <point x="558.291" y="65.542" type="line"/>
      <point x="494.273" y="182.146" type="line"/>
      <point x="725.194" y="373.437"/>
      <point x="766.348" y="589.878"/>
      <point x="766.348" y="875.672" type="curve" smooth="yes"/>
      <point x="766.348" y="929.02"/>
      <point x="756.441" y="986.941"/>
      <point x="690.899" y="986.941" type="curve" smooth="yes"/>
      <point x="682.516" y="986.941"/>
      <point x="673.36" y="986.232"/>
      <point x="664.987" y="984.654" type="curve" smooth="yes"/>
      <point x="507.229" y="954.932" type="line"/>
      <point x="507.229" y="931.306" type="line"/>
      <point x="562.863" y="913.777"/>
      <point x="559.815" y="848.235"/>
      <point x="559.815" y="801.746" type="curve" smooth="yes"/>
      <point x="559.815" y="615.79"/>
      <point x="537.713" y="451.173"/>
      <point x="383.766" y="330.758" type="curve"/>
      <point x="343.374" y="386.393"/>
      <point x="328.772" y="463.352"/>
      <point x="320.51" y="530.433" type="curve" smooth="yes"/>
      <point x="309.719" y="618.061"/>
      <point x="310.053" y="707.261"/>
      <point x="302.982" y="795.649" type="curve" smooth="yes"/>
      <point x="294.81" y="897.79"/>
      <point x="274.783" y="984.654"/>
      <point x="200.858" y="984.654" type="curve" smooth="yes"/>
      <point x="194.761" y="984.654"/>
      <point x="188.63" y="984.126"/>
      <point x="182.567" y="983.13" type="curve" smooth="yes"/>
    </contour>
  </outline>
</glyph>
<glyph name="w" format="2">
  <advance width="2044"/>
  <unicode hex="0077"/>
  <outline>
    <contour>
      <point x="20.5115" y="1049.47" type="curve"/>
      <point x="72.8038" y="1007.23"/>
      <point x="82.86" y="949.91"/>
      <point x="82.86" y="885.551" type="curve" smooth="yes"/>
      <point x="82.86" y="854.377"/>
      <point x="69.7869" y="809.124"/>
      <point x="51.6857" y="783.984" type="curve"/>
      <point x="79.843" y="775.939"/>
      <point x="111.017" y="769.905"/>
      <point x="140.18" y="769.905" type="curve" smooth="yes"/>
      <point x="240.742" y="769.905"/>
      <point x="336.276" y="788.006"/>
      <point x="393.596" y="878.512" type="curve"/>
      <point x="429.799" y="880.523"/>
      <point x="466.001" y="883.54"/>
      <point x="502.203" y="883.54" type="curve" smooth="yes"/>
      <point x="556.507" y="883.54"/>
      <point x="560.529" y="811.135"/>
      <point x="560.529" y="771.916" type="curve" smooth="yes"/>
      <point x="560.529" y="667.332"/>
      <point x="551.479" y="563.753"/>
      <point x="551.479" y="459.168" type="curve" smooth="yes"/>
      <point x="551.479" y="238.938"/>
      <point x="635.951" y="-0.400042"/>
      <point x="893.39" y="-0.400042" type="curve" smooth="yes"/>
      <point x="969.817" y="-0.400042"/>
      <point x="1049.26" y="22.7292"/>
      <point x="1122.67" y="40.8304" type="curve"/>
      <point x="1163.9" y="11.6674" type="line"/>
      <point x="1251.39" y="16.6955"/>
      <point x="1337.86" y="28.8843"/>
      <point x="1425.36" y="38.8192" type="curve" smooth="yes"/>
      <point x="1568.15" y="55.0305"/>
      <point x="1693.84" y="99.1791"/>
      <point x="1802.47" y="195.696" type="curve" smooth="yes"/>
      <point x="1991.51" y="363.657"/>
      <point x="2022.7" y="555.708"/>
      <point x="2022.7" y="801.079" type="curve" smooth="yes"/>
      <point x="2022.7" y="951.922"/>
      <point x="2014.66" y="987.119"/>
      <point x="1953.31" y="987.119" type="curve" smooth="yes"/>
      <point x="1878.9" y="987.119"/>
      <point x="1771.3" y="968.012"/>
      <point x="1694.87" y="958.961" type="curve"/>
      <point x="1694.87" y="932.815" type="line"/>
      <point x="1745.15" y="915.72"/>
      <point x="1749.17" y="863.428"/>
      <point x="1749.17" y="818.175" type="curve" smooth="yes"/>
      <point x="1749.17" y="485.314"/>
      <point x="1704.92" y="159.494"/>
      <point x="1433.41" y="111.224" type="curve"/>
      <point x="1433.41" y="876.501" type="line" smooth="yes"/>
      <point x="1433.41" y="935.832"/>
      <point x="1424.36" y="988.124"/>
      <point x="1353.96" y="988.124" type="curve" smooth="yes"/>
      <point x="1339.88" y="988.124"/>
      <point x="1325.9" y="986.658"/>
      <point x="1311.73" y="984.102" type="curve" smooth="yes"/>
      <point x="1116.64" y="948.905" type="line"/>
      <point x="1116.64" y="919.742" type="line"/>
      <point x="1151.83" y="909.686"/>
      <point x="1159.88" y="885.551"/>
      <point x="1159.88" y="792.029" type="curve" smooth="yes"/>
      <point x="1159.88" y="127.314" type="line"/>
      <point x="1134.74" y="124.297"/>
      <point x="1108.59" y="123.291"/>
      <point x="1083.45" y="123.291" type="curve" smooth="yes"/>
      <point x="1039.2" y="123.291"/>
      <point x="991.916" y="128.267"/>
      <point x="950.71" y="147.426" type="curve" smooth="yes"/>
      <point x="834.033" y="201.677"/>
      <point x="828.024" y="465.202"/>
      <point x="828.024" y="582.86" type="curve" smooth="yes"/>
      <point x="828.024" y="680.405"/>
      <point x="838.08" y="778.955"/>
      <point x="838.08" y="876.501" type="curve" smooth="yes"/>
      <point x="838.08" y="947.9"/>
      <point x="827.019" y="985.108"/>
      <point x="748.58" y="985.108" type="curve" smooth="yes"/>
      <point x="739.53" y="985.108"/>
      <point x="729.501" y="984.813"/>
      <point x="720.423" y="984.102" type="curve" smooth="yes"/>
      <point x="399.63" y="958.961" type="line"/>
      <point x="385.551" y="1050.47"/>
      <point x="290.018" y="1086.68"/>
      <point x="207.557" y="1086.68" type="curve" smooth="yes"/>
      <point x="149.231" y="1086.68"/>
      <point x="75.8205" y="1068.57"/>
    </contour>
  </outline>
</glyph>
<glyph name="x" format="2">
  <advance width="1125"/>
  <unicode hex="0078"/>
  <outline>
    <contour>
      <point x="1104.5" y="234.619" type="curve"/>
      <point x="1073.82" y="229.774"/>
      <point x="1033.97" y="256.693"/>
      <point x="1012.98" y="277.69" type="curve" smooth="yes"/>
      <point x="989.826" y="300.841"/>
      <point x="969.906" y="339.067"/>
      <point x="979.597" y="372.447" type="curve"/>
      <point x="958.061" y="365.986"/>
      <point x="930.065" y="343.374"/>
      <point x="914.452" y="327.761" type="curve" smooth="yes"/>
      <point x="881.072" y="294.381"/>
      <point x="855.229" y="253.463"/>
      <point x="841.769" y="208.777" type="curve"/>
      <point x="805.159" y="188.318"/>
      <point x="756.704" y="176.473"/>
      <point x="723.862" y="209.315" type="curve" smooth="yes"/>
      <point x="696.404" y="236.773"/>
      <point x="630.182" y="327.761"/>
      <point x="591.418" y="379.446" type="curve"/>
      <point x="852.537" y="682.56" type="line"/>
      <point x="827.771" y="696.558"/>
      <point x="804.62" y="719.708"/>
      <point x="784.7" y="739.629" type="curve" smooth="yes"/>
      <point x="757.242" y="767.087"/>
      <point x="720.093" y="819.311"/>
      <point x="720.631" y="860.767" type="curve"/>
      <point x="699.096" y="860.767"/>
      <point x="672.715" y="841.923"/>
      <point x="658.717" y="827.925" type="curve" smooth="yes"/>
      <point x="580.65" y="749.858"/>
      <point x="593.571" y="626.029"/>
      <point x="668.408" y="551.192" type="curve"/>
      <point x="558.576" y="423.056" type="line"/>
      <point x="292.612" y="779.47" type="line" smooth="yes"/>
      <point x="278.83" y="797.938"/>
      <point x="258.155" y="822.541"/>
      <point x="242.003" y="838.693" type="curve" smooth="yes"/>
      <point x="205.392" y="875.303"/>
      <point x="173.089" y="893.608"/>
      <point x="131.633" y="852.152" type="curve" smooth="yes"/>
      <point x="119.789" y="840.308"/>
      <point x="111.217" y="827.357"/>
      <point x="102.022" y="813.927" type="curve" smooth="yes"/>
      <point x="20.1864" y="694.404" type="line"/>
      <point x="37.9533" y="676.637" type="line"/>
      <point x="73.487" y="690.635"/>
      <point x="105.252" y="669.638"/>
      <point x="129.48" y="645.411" type="curve" smooth="yes"/>
      <point x="151.015" y="623.875"/>
      <point x="175.147" y="589.885"/>
      <point x="193.548" y="565.191" type="curve" smooth="yes"/>
      <point x="420.21" y="261" type="line"/>
      <point x="318.993" y="144.708" type="line"/>
      <point x="314.686" y="149.015"/>
      <point x="310.917" y="153.86"/>
      <point x="306.61" y="158.168" type="curve" smooth="yes"/>
      <point x="239.311" y="225.466"/>
      <point x="168.782" y="228.158"/>
      <point x="101.483" y="160.859" type="curve" smooth="yes"/>
      <point x="78.3325" y="137.709"/>
      <point x="58.9505" y="98.9447"/>
      <point x="57.8737" y="65.5645" type="curve"/>
      <point x="89.1003" y="74.1787"/>
      <point x="143.478" y="28.416"/>
      <point x="162.321" y="9.57236" type="curve" smooth="yes"/>
      <point x="180.627" y="-8.73289"/>
      <point x="203.777" y="-35.114"/>
      <point x="215.622" y="-58.8031" type="curve"/>
      <point x="453.59" y="216.852" type="line"/>
      <point x="492.354" y="165.167"/>
      <point x="573.651" y="52.6435"/>
      <point x="597.879" y="28.416" type="curve" smooth="yes"/>
      <point x="633.951" y="-7.65611"/>
      <point x="664.639" y="-10.348"/>
      <point x="701.788" y="26.8009" type="curve" smooth="yes"/>
      <point x="727.092" y="52.1052"/>
      <point x="792.237" y="125.865"/>
      <point x="836.385" y="176.473" type="curve"/>
      <point x="833.155" y="147.4"/>
      <point x="836.385" y="114.02"/>
      <point x="857.921" y="92.4844" type="curve" smooth="yes"/>
      <point x="917.682" y="32.7232"/>
      <point x="985.519" y="89.7925"/>
      <point x="1031.28" y="135.556" type="curve" smooth="yes"/>
      <point x="1055.51" y="159.783"/>
      <point x="1091.04" y="202.854"/>
    </contour>
  </outline>
</glyph>
<glyph name="y" format="2">
  <advance width="724"/>
  <unicode hex="0079"/>
  <outline>
    <contour>
      <point x="703.388" y="892.179" type="curve" smooth="yes"/>
      <point x="703.388" y="939.177"/>
      <point x="687.979" y="986.944"/>
      <point x="632.507" y="986.944" type="curve" smooth="yes"/>
      <point x="591.673" y="986.944"/>
      <point x="491.515" y="957.667"/>
      <point x="442.976" y="944.57" type="curve"/>
      <point x="442.976" y="926.849" type="line"/>
      <point x="464.549" y="909.899"/>
      <point x="473.024" y="889.097"/>
      <point x="473.024" y="862.132" type="curve" smooth="yes"/>
      <point x="473.024" y="808.2"/>
      <point x="410.617" y="681.847"/>
      <point x="385.963" y="634.849" type="curve"/>
      <point x="256.528" y="604.802" type="line"/>
      <point x="256.528" y="693.403"/>
      <point x="292.739" y="765.055"/>
      <point x="292.739" y="849.804" type="curve" smooth="yes"/>
      <point x="292.739" y="893.72"/>
      <point x="273.478" y="931.472"/>
      <point x="224.939" y="931.472" type="curve" smooth="yes"/>
      <point x="191.04" y="931.472"/>
      <point x="61.6043" y="893.72"/>
      <point x="20" y="881.393" type="curve"/>
      <point x="20" y="854.427" type="line"/>
      <point x="60.8338" y="844.411"/>
      <point x="72.3905" y="808.2"/>
      <point x="72.3905" y="770.448" type="curve" smooth="yes"/>
      <point x="72.3905" y="718.828"/>
      <point x="56.2111" y="667.208"/>
      <point x="56.2111" y="615.588" type="curve" smooth="yes"/>
      <point x="56.2111" y="563.197"/>
      <point x="81.6359" y="520.823"/>
      <point x="138.649" y="520.823" type="curve" smooth="yes"/>
      <point x="154.829" y="520.823"/>
      <point x="171.783" y="525.429"/>
      <point x="187.187" y="529.298" type="curve" smooth="yes"/>
      <point x="355.916" y="571.672" type="line"/>
      <point x="134.797" y="123.271" type="line" smooth="yes"/>
      <point x="129.156" y="111.833"/>
      <point x="116.306" y="77.0444"/>
      <point x="116.306" y="64.7173" type="curve" smooth="yes"/>
      <point x="116.306" y="12.3268"/>
      <point x="138.649" y="0"/>
      <point x="187.187" y="0" type="curve" smooth="yes"/>
      <point x="203.367" y="0"/>
      <point x="219.495" y="2.6997"/>
      <point x="235.726" y="4.6227" type="curve" smooth="yes"/>
      <point x="398.29" y="23.8839" type="line"/>
      <point x="398.29" y="48.5383" type="line"/>
      <point x="379.029" y="60.095"/>
      <point x="366.702" y="83.2085"/>
      <point x="366.702" y="105.551" type="curve" smooth="yes"/>
      <point x="366.702" y="120.19"/>
      <point x="371.805" y="146.526"/>
      <point x="378.259" y="159.483" type="curve" smooth="yes"/>
      <point x="674.881" y="755.04" type="line" smooth="yes"/>
      <point x="694.39" y="794.21"/>
      <point x="703.388" y="848.264"/>
    </contour>
  </outline>
</glyph>
<glyph name="z" format="2">
  <advance width="1268"/>
  <unicode hex="007A"/>
  <outline>
    <contour>
      <point x="1198.21" y="-37.5712" type="curve"/>
      <point x="1154.07" y="-10.2047"/>
      <point x="1145.24" y="38.3488"/>
      <point x="1145.24" y="86.9023" type="curve" smooth="yes"/>
      <point x="1145.24" y="119.566"/>
      <point x="1154.07" y="186.658"/>
      <point x="1179.67" y="208.727" type="curve"/>
      <point x="1157.6" y="213.141"/>
      <point x="1133.76" y="214.024"/>
      <point x="1110.81" y="214.024" type="curve" smooth="yes"/>
      <point x="1032.24" y="214.024"/>
      <point x="890.113" y="188.423"/>
      <point x="856.567" y="105.441" type="curve"/>
      <point x="815.075" y="100.144"/>
      <point x="755.928" y="93.9647"/>
      <point x="731.21" y="93.9647" type="curve" smooth="yes"/>
      <point x="687.071" y="93.9647"/>
      <point x="668.532" y="108.089"/>
      <point x="668.532" y="152.229" type="curve" smooth="yes"/>
      <point x="668.532" y="175.181"/>
      <point x="672.525" y="199.984"/>
      <point x="677.36" y="222.852" type="curve" smooth="yes"/>
      <point x="765.639" y="640.412" type="line" smooth="yes"/>
      <point x="774.592" y="682.76"/>
      <point x="784.178" y="732.222"/>
      <point x="784.178" y="771.948" type="curve" smooth="yes"/>
      <point x="784.178" y="900.835"/>
      <point x="707.375" y="987.349"/>
      <point x="575.839" y="987.349" type="curve" smooth="yes"/>
      <point x="404.578" y="987.349"/>
      <point x="256.269" y="900.835"/>
      <point x="89.4214" y="878.766" type="curve"/>
      <point x="100.015" y="852.282"/>
      <point x="111.491" y="812.556"/>
      <point x="111.491" y="785.19" type="curve" smooth="yes"/>
      <point x="111.491" y="738.402"/>
      <point x="98.2493" y="675.724"/>
      <point x="70" y="636.881" type="curve"/>
      <point x="86.773" y="628.936"/>
      <point x="113.257" y="626.287"/>
      <point x="130.913" y="626.287" type="curve" smooth="yes"/>
      <point x="301.291" y="626.287"/>
      <point x="351.61" y="725.16"/>
      <point x="351.61" y="878.766" type="curve"/>
      <point x="379.86" y="886.711"/>
      <point x="411.64" y="893.773"/>
      <point x="440.772" y="893.773" type="curve" smooth="yes"/>
      <point x="512.278" y="893.773"/>
      <point x="541.41" y="816.087"/>
      <point x="541.41" y="756.058" type="curve" smooth="yes"/>
      <point x="541.41" y="729.574"/>
      <point x="538.196" y="700.374"/>
      <point x="532.582" y="674.841" type="curve" smooth="yes"/>
      <point x="413.406" y="132.807" type="line" smooth="yes"/>
      <point x="409.313" y="114.195"/>
      <point x="408.109" y="92.1991"/>
      <point x="408.109" y="72.7777" type="curve" smooth="yes"/>
      <point x="408.109" y="15.3963"/>
      <point x="428.413" y="0.388825"/>
      <point x="484.029" y="0.388825" type="curve" smooth="yes"/>
      <point x="505.216" y="0.388825"/>
      <point x="698.547" y="25.107"/>
      <point x="849.504" y="41.88" type="curve"/>
      <point x="857.449" y="-47.2819"/>
      <point x="931.604" y="-72"/>
      <point x="1010.17" y="-72" type="curve" smooth="yes"/>
      <point x="1070.2" y="-72"/>
      <point x="1147" y="-71.1172"/>
    </contour>
  </outline>
</glyph>
